M48
; DRILL file {KiCad 7.0.10} date qui 07 mar 2024 11:58:03
; FORMAT={-:-/ absolute / inch / decimal}
; #@! TF.CreationDate,2024-03-07T11:58:03+00:00
; #@! TF.GenerationSoftware,Kicad,Pcbnew,7.0.10
; #@! TF.FileFunction,Plated,1,2,PTH
FMAT,2
INCH
; #@! TA.AperFunction,Plated,PTH,ViaDrill
T1C0.0157
; #@! TA.AperFunction,Plated,PTH,ComponentDrill
T2C0.0236
; #@! TA.AperFunction,Plated,PTH,ComponentDrill
T3C0.0276
; #@! TA.AperFunction,Plated,PTH,ComponentDrill
T4C0.0295
; #@! TA.AperFunction,Plated,PTH,ComponentDrill
T5C0.0315
; #@! TA.AperFunction,Plated,PTH,ComponentDrill
T6C0.0630
%
G90
G05
T1
X1.16Y-2.44
X1.18Y-3.14
X1.2Y-2.725
X1.26Y-2.82
X1.28Y-1.68
X1.29Y-2.31
X1.3Y-1.8
X1.31Y-2.89
X1.3139Y-1.7339
X1.3179Y-2.4718
X1.34Y-3.1
X1.35Y-1.91
X1.4Y-2.35
X1.4Y-2.5
X1.42Y-1.52
X1.43Y-1.62
X1.43Y-1.82
X1.45Y-3.1165
X1.5Y-2.3508
X1.5Y-3.1096
X1.54Y-1.7
X1.55Y-2.7
X1.57Y-1.985
X1.58Y-1.87
X1.625Y-2.525
X1.6396Y-2.2191
X1.65Y-2.675
X1.65Y-2.84
X1.65Y-3.175
X1.6814Y-2.041
X1.6945Y-3.2
X1.7Y-2.55
X1.7286Y-2.0534
X1.73Y-2.61
X1.7315Y-2.2583
X1.75Y-3.125
X1.7983Y-3.175
X1.8Y-2.45
X1.8Y-3.1213
X1.84Y-2.61
X1.8495Y-1.9278
X1.8659Y-3.139
X1.89Y-1.5
X1.9066Y-1.9015
X1.9141Y-1.9714
X1.9297Y-1.8302
X1.95Y-2.64
X1.9598Y-1.7502
X1.9642Y-2.0573
X1.975Y-1.5738
X1.975Y-2.825
X2.04Y-2.5
X2.04Y-2.6
X2.05Y-2.75
X2.05Y-2.9
X2.075Y-1.65
X2.075Y-2.575
X2.08Y-1.54
X2.0819Y-1.7148
X2.1Y-2.0583
X2.1307Y-2.7165
X2.15Y-2.9
X2.18Y-1.57
X2.21Y-1.7
X2.21Y-1.76
X2.21Y-2.2498
X2.23Y-2.03
X2.2378Y-1.65
X2.26Y-2.58
X2.2715Y-2.276
X2.2772Y-1.65
X2.2874Y-1.6102
X2.3Y-2.48
X2.33Y-1.6
X2.44Y-2.2937
X2.4473Y-3.0873
X2.45Y-2.85
X2.5Y-1.825
X2.5Y-2.28
X2.5Y-3.075
X2.5035Y-2.1
X2.52Y-1.92
X2.5285Y-2.525
X2.5573Y-1.78
X2.575Y-2.7165
X2.6Y-1.55
X2.6Y-1.7
X2.6Y-2.825
X2.6235Y-2.5535
X2.6265Y-1.7865
X2.6652Y-2.5682
X2.6725Y-2.2821
X2.675Y-2.625
X2.7Y-2.875
X2.7099Y-2.2698
X2.7292Y-2.628
X2.7345Y-2.7309
X2.76Y-1.9
X2.7785Y-2.875
X2.8Y-1.56
X2.8Y-1.8
X2.81Y-2.3
X2.8139Y-2.5337
X2.82Y-1.64
X2.825Y-2.0
X2.84Y-2.7965
X2.85Y-3.16
X2.875Y-2.86
X2.91Y-2.36
X2.93Y-3.2
X2.97Y-3.04
X2.9715Y-3.15
X2.975Y-2.0
X3.0Y-2.925
X3.02Y-2.12
X3.025Y-1.85
X3.04Y-3.16
X3.1Y-1.675
X3.1Y-2.4
X3.15Y-3.075
X3.24Y-2.59
X3.28Y-2.99
X3.28Y-3.11
X3.28Y-3.19
X3.3Y-1.64
X3.3Y-1.82
X3.3Y-1.96
X3.3Y-2.1
X3.35Y-2.62
X3.375Y-2.75
X3.375Y-2.8
X3.46Y-2.1
X3.48Y-1.84
X3.4992Y-2.8008
X3.5Y-1.55
X3.5Y-1.64
X3.5Y-2.875
X3.55Y-1.7
X3.55Y-2.5
X3.55Y-2.65
X3.56Y-1.85
X3.56Y-1.96
X3.575Y-2.5715
X3.6Y-2.2
X3.65Y-2.71
X3.65Y-2.925
X3.74Y-2.68
X3.75Y-2.8785
X3.775Y-1.575
X3.78Y-1.86
X3.79Y-1.95
X3.8Y-2.525
X3.81Y-2.06
X3.81Y-2.15
X3.8169Y-2.2148
X3.85Y-2.236
X3.875Y-2.625
X3.9Y-2.75
X3.95Y-2.2715
X3.95Y-2.5
X3.95Y-2.75
X3.975Y-1.6
X3.975Y-1.85
X3.98Y-2.62
X3.99Y-1.75
X3.9906Y-2.2406
X4.025Y-1.6715
X4.025Y-2.75
X4.0535Y-2.0965
X4.0715Y-2.75
X4.0798Y-1.7898
X4.08Y-1.95
X4.1Y-2.125
X4.11Y-1.87
X4.13Y-1.77
X4.15Y-2.24
X4.15Y-2.75
X4.24Y-2.28
X4.25Y-2.85
X4.35Y-2.73
X4.375Y-2.3071
X4.475Y-1.65
X4.5Y-2.53
X4.55Y-1.525
X4.55Y-1.7
X4.55Y-1.9
X4.56Y-2.05
X4.575Y-2.7
X4.59Y-3.1
X4.65Y-2.825
T2
X1.85Y-1.6909
X1.85Y-1.75
X2.25Y-1.4659
X2.25Y-1.525
X2.935Y-2.835
X2.935Y-2.8941
T3
X1.82Y-1.875
X1.82Y-1.975
X2.925Y-3.0
X3.025Y-3.0
X3.07Y-2.81
X3.07Y-2.91
X3.2Y-2.44
X3.2Y-2.54
T4
X1.725Y-2.125
X1.775Y-2.125
X1.825Y-2.125
T5
X1.2Y-1.45
X1.2Y-1.55
X1.2Y-1.65
X1.2Y-1.75
X1.2Y-1.85
X1.2Y-1.95
X1.2Y-2.05
X1.2Y-2.15
X1.25Y-2.4
X1.25Y-3.0
X1.35Y-2.4
X1.35Y-3.0
X1.45Y-2.4
X1.45Y-3.0
X1.5Y-1.45
X1.5Y-1.55
X1.5Y-1.65
X1.5Y-1.75
X1.5Y-1.85
X1.5Y-1.95
X1.5Y-2.05
X1.5Y-2.15
X1.55Y-2.4
X1.55Y-3.0
X1.6216Y-1.675
X1.6216Y-1.775
X1.65Y-2.4
X1.65Y-3.0
X1.72Y-1.675
X1.72Y-1.775
X1.725Y-1.8766
X1.725Y-1.975
X1.75Y-2.4
X1.75Y-3.0
X1.8079Y-1.5
X1.85Y-2.4
X1.85Y-3.0
X1.9258Y-2.14
X1.95Y-2.4
X1.95Y-3.0
X2.0Y-1.5
X2.0242Y-2.14
X2.05Y-2.4
X2.05Y-3.0
X2.1266Y-2.14
X2.15Y-2.4
X2.15Y-3.0
X2.225Y-2.14
X2.25Y-2.4
X2.25Y-3.0
X2.35Y-2.4
X2.35Y-3.0
X2.4Y-1.45
X2.4Y-1.55
X2.4Y-1.65
X2.4Y-1.75
X2.4Y-1.85
X2.4Y-1.95
X2.4Y-2.05
X2.4Y-2.15
X2.45Y-2.4
X2.45Y-3.0
X2.55Y-2.4
X2.55Y-3.0
X2.65Y-2.4
X2.65Y-3.0
X2.7Y-1.45
X2.7Y-1.55
X2.7Y-1.65
X2.7Y-1.75
X2.7Y-1.85
X2.7Y-1.95
X2.7Y-2.05
X2.7Y-2.15
X2.75Y-2.4
X2.75Y-3.0
X2.9Y-1.45
X2.9Y-1.55
X2.9Y-1.65
X2.9Y-1.75
X2.9Y-1.85
X2.9Y-1.95
X2.9Y-2.05
X2.9Y-2.15
X3.2Y-1.45
X3.2Y-1.55
X3.2Y-1.65
X3.2Y-1.75
X3.2Y-1.85
X3.2Y-1.95
X3.2Y-2.05
X3.2Y-2.15
X3.2Y-2.65
X3.2Y-2.75
X3.2Y-2.85
X3.2Y-2.95
X3.35Y-2.4
X3.35Y-3.0
X3.4Y-1.45
X3.4Y-1.55
X3.4Y-1.65
X3.4Y-1.75
X3.4Y-1.85
X3.4Y-1.95
X3.4Y-2.05
X3.4Y-2.15
X3.45Y-2.4
X3.45Y-3.0
X3.55Y-2.4
X3.55Y-3.0
X3.65Y-2.4
X3.65Y-3.0
X3.7Y-1.45
X3.7Y-1.55
X3.7Y-1.65
X3.7Y-1.75
X3.7Y-1.85
X3.7Y-1.95
X3.7Y-2.05
X3.7Y-2.15
X3.75Y-2.4
X3.75Y-3.0
X3.85Y-2.4
X3.85Y-3.0
X3.9Y-1.45
X3.9Y-1.55
X3.9Y-1.65
X3.9Y-1.75
X3.9Y-1.85
X3.9Y-1.95
X3.9Y-2.05
X3.9Y-2.15
X3.95Y-2.4
X3.95Y-3.0
X4.05Y-2.4
X4.05Y-3.0
X4.15Y-2.4
X4.15Y-3.0
X4.2Y-1.45
X4.2Y-1.55
X4.2Y-1.65
X4.2Y-1.75
X4.2Y-1.85
X4.2Y-1.95
X4.2Y-2.05
X4.2Y-2.15
X4.25Y-2.4
X4.25Y-3.0
X4.35Y-2.4
X4.35Y-3.0
X4.4Y-1.45
X4.4Y-1.55
X4.4Y-1.65
X4.4Y-1.75
X4.4Y-1.85
X4.4Y-1.95
X4.4Y-2.05
X4.4Y-2.15
X4.45Y-2.4
X4.45Y-3.0
X4.55Y-2.4
X4.55Y-3.0
X4.65Y-2.4
X4.65Y-3.0
X4.7Y-1.45
X4.7Y-1.55
X4.7Y-1.65
X4.7Y-1.75
X4.7Y-1.85
X4.7Y-1.95
X4.7Y-2.05
X4.7Y-2.15
T6
X2.0949Y-1.88
M30
