%TF.GenerationSoftware,KiCad,Pcbnew,7.0.10*%
%TF.CreationDate,2024-03-07T11:58:06+00:00*%
%TF.ProjectId,v0a,7630612e-6b69-4636-9164-5f7063625858,rev?*%
%TF.SameCoordinates,Original*%
%TF.FileFunction,Legend,Top*%
%TF.FilePolarity,Positive*%
%FSLAX46Y46*%
G04 Gerber Fmt 4.6, Leading zero omitted, Abs format (unit mm)*
G04 Created by KiCad (PCBNEW 7.0.10) date 2024-03-07 11:58:06*
%MOMM*%
%LPD*%
G01*
G04 APERTURE LIST*
%ADD10C,0.150000*%
%ADD11C,0.100000*%
%ADD12C,0.300000*%
%ADD13C,0.160000*%
%ADD14C,0.250000*%
%ADD15C,0.200000*%
%ADD16C,0.120000*%
G04 APERTURE END LIST*
D10*
X32512000Y-78943651D02*
X30988000Y-78943651D01*
X31750000Y-77800651D01*
X32512000Y-78943651D01*
G36*
X32512000Y-78943651D02*
G01*
X30988000Y-78943651D01*
X31750000Y-77800651D01*
X32512000Y-78943651D01*
G37*
X109855000Y-36830000D02*
X108712000Y-37592000D01*
X108712000Y-36068000D01*
X109855000Y-36830000D01*
G36*
X109855000Y-36830000D02*
G01*
X108712000Y-37592000D01*
X108712000Y-36068000D01*
X109855000Y-36830000D01*
G37*
X85852000Y-79248000D02*
X84328000Y-79248000D01*
X85090000Y-78105000D01*
X85852000Y-79248000D01*
G36*
X85852000Y-79248000D02*
G01*
X84328000Y-79248000D01*
X85090000Y-78105000D01*
X85852000Y-79248000D01*
G37*
X85725000Y-36830000D02*
X84582000Y-37592000D01*
X84582000Y-36068000D01*
X85725000Y-36830000D01*
G36*
X85725000Y-36830000D02*
G01*
X84582000Y-37592000D01*
X84582000Y-36068000D01*
X85725000Y-36830000D01*
G37*
X71755000Y-36830000D02*
X70612000Y-37592000D01*
X70612000Y-36068000D01*
X71755000Y-36830000D01*
G36*
X71755000Y-36830000D02*
G01*
X70612000Y-37592000D01*
X70612000Y-36068000D01*
X71755000Y-36830000D01*
G37*
X97790000Y-36830000D02*
X96647000Y-37592000D01*
X96647000Y-36068000D01*
X97790000Y-36830000D01*
G36*
X97790000Y-36830000D02*
G01*
X96647000Y-37592000D01*
X96647000Y-36068000D01*
X97790000Y-36830000D01*
G37*
X59275385Y-36816923D02*
X58132385Y-37578923D01*
X58132385Y-36054923D01*
X59275385Y-36816923D01*
G36*
X59275385Y-36816923D02*
G01*
X58132385Y-37578923D01*
X58132385Y-36054923D01*
X59275385Y-36816923D01*
G37*
X29845000Y-36830000D02*
X28702000Y-37592000D01*
X28702000Y-36068000D01*
X29845000Y-36830000D01*
G36*
X29845000Y-36830000D02*
G01*
X28702000Y-37592000D01*
X28702000Y-36068000D01*
X29845000Y-36830000D01*
G37*
X44069142Y-55080819D02*
X44564380Y-55080819D01*
X44564380Y-55080819D02*
X44297714Y-55461771D01*
X44297714Y-55461771D02*
X44411999Y-55461771D01*
X44411999Y-55461771D02*
X44488190Y-55509390D01*
X44488190Y-55509390D02*
X44526285Y-55557009D01*
X44526285Y-55557009D02*
X44564380Y-55652247D01*
X44564380Y-55652247D02*
X44564380Y-55890342D01*
X44564380Y-55890342D02*
X44526285Y-55985580D01*
X44526285Y-55985580D02*
X44488190Y-56033200D01*
X44488190Y-56033200D02*
X44411999Y-56080819D01*
X44411999Y-56080819D02*
X44183428Y-56080819D01*
X44183428Y-56080819D02*
X44107237Y-56033200D01*
X44107237Y-56033200D02*
X44069142Y-55985580D01*
X44907238Y-55985580D02*
X44945333Y-56033200D01*
X44945333Y-56033200D02*
X44907238Y-56080819D01*
X44907238Y-56080819D02*
X44869142Y-56033200D01*
X44869142Y-56033200D02*
X44907238Y-55985580D01*
X44907238Y-55985580D02*
X44907238Y-56080819D01*
X45211999Y-55080819D02*
X45707237Y-55080819D01*
X45707237Y-55080819D02*
X45440571Y-55461771D01*
X45440571Y-55461771D02*
X45554856Y-55461771D01*
X45554856Y-55461771D02*
X45631047Y-55509390D01*
X45631047Y-55509390D02*
X45669142Y-55557009D01*
X45669142Y-55557009D02*
X45707237Y-55652247D01*
X45707237Y-55652247D02*
X45707237Y-55890342D01*
X45707237Y-55890342D02*
X45669142Y-55985580D01*
X45669142Y-55985580D02*
X45631047Y-56033200D01*
X45631047Y-56033200D02*
X45554856Y-56080819D01*
X45554856Y-56080819D02*
X45326285Y-56080819D01*
X45326285Y-56080819D02*
X45250094Y-56033200D01*
X45250094Y-56033200D02*
X45211999Y-55985580D01*
X45973904Y-55414152D02*
X46164380Y-56080819D01*
X46164380Y-56080819D02*
X46354857Y-55414152D01*
X37814619Y-81734819D02*
X37357476Y-81734819D01*
X37586048Y-81734819D02*
X37711048Y-80734819D01*
X37711048Y-80734819D02*
X37617000Y-80877676D01*
X37617000Y-80877676D02*
X37528905Y-80972914D01*
X37528905Y-80972914D02*
X37446762Y-81020533D01*
D11*
X75576113Y-59988752D02*
X75576113Y-60988752D01*
X75576113Y-60036371D02*
X75652303Y-59988752D01*
X75652303Y-59988752D02*
X75804684Y-59988752D01*
X75804684Y-59988752D02*
X75880875Y-60036371D01*
X75880875Y-60036371D02*
X75918970Y-60083990D01*
X75918970Y-60083990D02*
X75957065Y-60179228D01*
X75957065Y-60179228D02*
X75957065Y-60464942D01*
X75957065Y-60464942D02*
X75918970Y-60560180D01*
X75918970Y-60560180D02*
X75880875Y-60607800D01*
X75880875Y-60607800D02*
X75804684Y-60655419D01*
X75804684Y-60655419D02*
X75652303Y-60655419D01*
X75652303Y-60655419D02*
X75576113Y-60607800D01*
X76299923Y-60655419D02*
X76299923Y-59988752D01*
X76299923Y-60179228D02*
X76338018Y-60083990D01*
X76338018Y-60083990D02*
X76376113Y-60036371D01*
X76376113Y-60036371D02*
X76452304Y-59988752D01*
X76452304Y-59988752D02*
X76528494Y-59988752D01*
X76909446Y-60655419D02*
X76833256Y-60607800D01*
X76833256Y-60607800D02*
X76795161Y-60560180D01*
X76795161Y-60560180D02*
X76757065Y-60464942D01*
X76757065Y-60464942D02*
X76757065Y-60179228D01*
X76757065Y-60179228D02*
X76795161Y-60083990D01*
X76795161Y-60083990D02*
X76833256Y-60036371D01*
X76833256Y-60036371D02*
X76909446Y-59988752D01*
X76909446Y-59988752D02*
X77023732Y-59988752D01*
X77023732Y-59988752D02*
X77099923Y-60036371D01*
X77099923Y-60036371D02*
X77138018Y-60083990D01*
X77138018Y-60083990D02*
X77176113Y-60179228D01*
X77176113Y-60179228D02*
X77176113Y-60464942D01*
X77176113Y-60464942D02*
X77138018Y-60560180D01*
X77138018Y-60560180D02*
X77099923Y-60607800D01*
X77099923Y-60607800D02*
X77023732Y-60655419D01*
X77023732Y-60655419D02*
X76909446Y-60655419D01*
X77404685Y-59988752D02*
X77709447Y-59988752D01*
X77518971Y-59655419D02*
X77518971Y-60512561D01*
X77518971Y-60512561D02*
X77557066Y-60607800D01*
X77557066Y-60607800D02*
X77633256Y-60655419D01*
X77633256Y-60655419D02*
X77709447Y-60655419D01*
X78090399Y-60655419D02*
X78014209Y-60607800D01*
X78014209Y-60607800D02*
X77976114Y-60560180D01*
X77976114Y-60560180D02*
X77938018Y-60464942D01*
X77938018Y-60464942D02*
X77938018Y-60179228D01*
X77938018Y-60179228D02*
X77976114Y-60083990D01*
X77976114Y-60083990D02*
X78014209Y-60036371D01*
X78014209Y-60036371D02*
X78090399Y-59988752D01*
X78090399Y-59988752D02*
X78204685Y-59988752D01*
X78204685Y-59988752D02*
X78280876Y-60036371D01*
X78280876Y-60036371D02*
X78318971Y-60083990D01*
X78318971Y-60083990D02*
X78357066Y-60179228D01*
X78357066Y-60179228D02*
X78357066Y-60464942D01*
X78357066Y-60464942D02*
X78318971Y-60560180D01*
X78318971Y-60560180D02*
X78280876Y-60607800D01*
X78280876Y-60607800D02*
X78204685Y-60655419D01*
X78204685Y-60655419D02*
X78090399Y-60655419D01*
X79233257Y-59988752D02*
X79423733Y-60655419D01*
X79423733Y-60655419D02*
X79614210Y-59988752D01*
X80071353Y-59655419D02*
X80147543Y-59655419D01*
X80147543Y-59655419D02*
X80223734Y-59703038D01*
X80223734Y-59703038D02*
X80261829Y-59750657D01*
X80261829Y-59750657D02*
X80299924Y-59845895D01*
X80299924Y-59845895D02*
X80338019Y-60036371D01*
X80338019Y-60036371D02*
X80338019Y-60274466D01*
X80338019Y-60274466D02*
X80299924Y-60464942D01*
X80299924Y-60464942D02*
X80261829Y-60560180D01*
X80261829Y-60560180D02*
X80223734Y-60607800D01*
X80223734Y-60607800D02*
X80147543Y-60655419D01*
X80147543Y-60655419D02*
X80071353Y-60655419D01*
X80071353Y-60655419D02*
X79995162Y-60607800D01*
X79995162Y-60607800D02*
X79957067Y-60560180D01*
X79957067Y-60560180D02*
X79918972Y-60464942D01*
X79918972Y-60464942D02*
X79880876Y-60274466D01*
X79880876Y-60274466D02*
X79880876Y-60036371D01*
X79880876Y-60036371D02*
X79918972Y-59845895D01*
X79918972Y-59845895D02*
X79957067Y-59750657D01*
X79957067Y-59750657D02*
X79995162Y-59703038D01*
X79995162Y-59703038D02*
X80071353Y-59655419D01*
X81023734Y-60655419D02*
X81023734Y-60131609D01*
X81023734Y-60131609D02*
X80985639Y-60036371D01*
X80985639Y-60036371D02*
X80909448Y-59988752D01*
X80909448Y-59988752D02*
X80757067Y-59988752D01*
X80757067Y-59988752D02*
X80680877Y-60036371D01*
X81023734Y-60607800D02*
X80947543Y-60655419D01*
X80947543Y-60655419D02*
X80757067Y-60655419D01*
X80757067Y-60655419D02*
X80680877Y-60607800D01*
X80680877Y-60607800D02*
X80642781Y-60512561D01*
X80642781Y-60512561D02*
X80642781Y-60417323D01*
X80642781Y-60417323D02*
X80680877Y-60322085D01*
X80680877Y-60322085D02*
X80757067Y-60274466D01*
X80757067Y-60274466D02*
X80947543Y-60274466D01*
X80947543Y-60274466D02*
X81023734Y-60226847D01*
D10*
X79194819Y-54908220D02*
X78194819Y-54908220D01*
X79194819Y-53860602D02*
X78718628Y-54193935D01*
X79194819Y-54432030D02*
X78194819Y-54432030D01*
X78194819Y-54432030D02*
X78194819Y-54051078D01*
X78194819Y-54051078D02*
X78242438Y-53955840D01*
X78242438Y-53955840D02*
X78290057Y-53908221D01*
X78290057Y-53908221D02*
X78385295Y-53860602D01*
X78385295Y-53860602D02*
X78528152Y-53860602D01*
X78528152Y-53860602D02*
X78623390Y-53908221D01*
X78623390Y-53908221D02*
X78671009Y-53955840D01*
X78671009Y-53955840D02*
X78718628Y-54051078D01*
X78718628Y-54051078D02*
X78718628Y-54432030D01*
X79290057Y-52765364D02*
X79242438Y-52860602D01*
X79242438Y-52860602D02*
X79147200Y-52955840D01*
X79147200Y-52955840D02*
X79004342Y-53098697D01*
X79004342Y-53098697D02*
X78956723Y-53193935D01*
X78956723Y-53193935D02*
X78956723Y-53289173D01*
X79194819Y-53241554D02*
X79147200Y-53336792D01*
X79147200Y-53336792D02*
X79051961Y-53432030D01*
X79051961Y-53432030D02*
X78861485Y-53479649D01*
X78861485Y-53479649D02*
X78528152Y-53479649D01*
X78528152Y-53479649D02*
X78337676Y-53432030D01*
X78337676Y-53432030D02*
X78242438Y-53336792D01*
X78242438Y-53336792D02*
X78194819Y-53241554D01*
X78194819Y-53241554D02*
X78194819Y-53051078D01*
X78194819Y-53051078D02*
X78242438Y-52955840D01*
X78242438Y-52955840D02*
X78337676Y-52860602D01*
X78337676Y-52860602D02*
X78528152Y-52812983D01*
X78528152Y-52812983D02*
X78861485Y-52812983D01*
X78861485Y-52812983D02*
X79051961Y-52860602D01*
X79051961Y-52860602D02*
X79147200Y-52955840D01*
X79147200Y-52955840D02*
X79194819Y-53051078D01*
X79194819Y-53051078D02*
X79194819Y-53241554D01*
X78813866Y-52384411D02*
X78813866Y-51622507D01*
X79194819Y-51146316D02*
X78194819Y-51146316D01*
X78194819Y-51146316D02*
X78194819Y-50908221D01*
X78194819Y-50908221D02*
X78242438Y-50765364D01*
X78242438Y-50765364D02*
X78337676Y-50670126D01*
X78337676Y-50670126D02*
X78432914Y-50622507D01*
X78432914Y-50622507D02*
X78623390Y-50574888D01*
X78623390Y-50574888D02*
X78766247Y-50574888D01*
X78766247Y-50574888D02*
X78956723Y-50622507D01*
X78956723Y-50622507D02*
X79051961Y-50670126D01*
X79051961Y-50670126D02*
X79147200Y-50765364D01*
X79147200Y-50765364D02*
X79194819Y-50908221D01*
X79194819Y-50908221D02*
X79194819Y-51146316D01*
X79194819Y-50146316D02*
X78194819Y-50146316D01*
X78194819Y-49812983D02*
X79194819Y-49479650D01*
X79194819Y-49479650D02*
X78194819Y-49146317D01*
X91894819Y-54908220D02*
X90894819Y-54908220D01*
X91894819Y-53860602D02*
X91418628Y-54193935D01*
X91894819Y-54432030D02*
X90894819Y-54432030D01*
X90894819Y-54432030D02*
X90894819Y-54051078D01*
X90894819Y-54051078D02*
X90942438Y-53955840D01*
X90942438Y-53955840D02*
X90990057Y-53908221D01*
X90990057Y-53908221D02*
X91085295Y-53860602D01*
X91085295Y-53860602D02*
X91228152Y-53860602D01*
X91228152Y-53860602D02*
X91323390Y-53908221D01*
X91323390Y-53908221D02*
X91371009Y-53955840D01*
X91371009Y-53955840D02*
X91418628Y-54051078D01*
X91418628Y-54051078D02*
X91418628Y-54432030D01*
X91990057Y-52765364D02*
X91942438Y-52860602D01*
X91942438Y-52860602D02*
X91847200Y-52955840D01*
X91847200Y-52955840D02*
X91704342Y-53098697D01*
X91704342Y-53098697D02*
X91656723Y-53193935D01*
X91656723Y-53193935D02*
X91656723Y-53289173D01*
X91894819Y-53241554D02*
X91847200Y-53336792D01*
X91847200Y-53336792D02*
X91751961Y-53432030D01*
X91751961Y-53432030D02*
X91561485Y-53479649D01*
X91561485Y-53479649D02*
X91228152Y-53479649D01*
X91228152Y-53479649D02*
X91037676Y-53432030D01*
X91037676Y-53432030D02*
X90942438Y-53336792D01*
X90942438Y-53336792D02*
X90894819Y-53241554D01*
X90894819Y-53241554D02*
X90894819Y-53051078D01*
X90894819Y-53051078D02*
X90942438Y-52955840D01*
X90942438Y-52955840D02*
X91037676Y-52860602D01*
X91037676Y-52860602D02*
X91228152Y-52812983D01*
X91228152Y-52812983D02*
X91561485Y-52812983D01*
X91561485Y-52812983D02*
X91751961Y-52860602D01*
X91751961Y-52860602D02*
X91847200Y-52955840D01*
X91847200Y-52955840D02*
X91894819Y-53051078D01*
X91894819Y-53051078D02*
X91894819Y-53241554D01*
X91513866Y-52384411D02*
X91513866Y-51622507D01*
X91894819Y-51146316D02*
X90894819Y-51146316D01*
X91371009Y-51146316D02*
X91371009Y-50574888D01*
X91894819Y-50574888D02*
X90894819Y-50574888D01*
X91894819Y-50098697D02*
X90894819Y-50098697D01*
X104594819Y-54908220D02*
X103594819Y-54908220D01*
X104594819Y-53860602D02*
X104118628Y-54193935D01*
X104594819Y-54432030D02*
X103594819Y-54432030D01*
X103594819Y-54432030D02*
X103594819Y-54051078D01*
X103594819Y-54051078D02*
X103642438Y-53955840D01*
X103642438Y-53955840D02*
X103690057Y-53908221D01*
X103690057Y-53908221D02*
X103785295Y-53860602D01*
X103785295Y-53860602D02*
X103928152Y-53860602D01*
X103928152Y-53860602D02*
X104023390Y-53908221D01*
X104023390Y-53908221D02*
X104071009Y-53955840D01*
X104071009Y-53955840D02*
X104118628Y-54051078D01*
X104118628Y-54051078D02*
X104118628Y-54432030D01*
X104690057Y-52765364D02*
X104642438Y-52860602D01*
X104642438Y-52860602D02*
X104547200Y-52955840D01*
X104547200Y-52955840D02*
X104404342Y-53098697D01*
X104404342Y-53098697D02*
X104356723Y-53193935D01*
X104356723Y-53193935D02*
X104356723Y-53289173D01*
X104594819Y-53241554D02*
X104547200Y-53336792D01*
X104547200Y-53336792D02*
X104451961Y-53432030D01*
X104451961Y-53432030D02*
X104261485Y-53479649D01*
X104261485Y-53479649D02*
X103928152Y-53479649D01*
X103928152Y-53479649D02*
X103737676Y-53432030D01*
X103737676Y-53432030D02*
X103642438Y-53336792D01*
X103642438Y-53336792D02*
X103594819Y-53241554D01*
X103594819Y-53241554D02*
X103594819Y-53051078D01*
X103594819Y-53051078D02*
X103642438Y-52955840D01*
X103642438Y-52955840D02*
X103737676Y-52860602D01*
X103737676Y-52860602D02*
X103928152Y-52812983D01*
X103928152Y-52812983D02*
X104261485Y-52812983D01*
X104261485Y-52812983D02*
X104451961Y-52860602D01*
X104451961Y-52860602D02*
X104547200Y-52955840D01*
X104547200Y-52955840D02*
X104594819Y-53051078D01*
X104594819Y-53051078D02*
X104594819Y-53241554D01*
X104213866Y-52384411D02*
X104213866Y-51622507D01*
X104594819Y-50670126D02*
X104594819Y-51146316D01*
X104594819Y-51146316D02*
X103594819Y-51146316D01*
X103594819Y-50146316D02*
X103594819Y-49955840D01*
X103594819Y-49955840D02*
X103642438Y-49860602D01*
X103642438Y-49860602D02*
X103737676Y-49765364D01*
X103737676Y-49765364D02*
X103928152Y-49717745D01*
X103928152Y-49717745D02*
X104261485Y-49717745D01*
X104261485Y-49717745D02*
X104451961Y-49765364D01*
X104451961Y-49765364D02*
X104547200Y-49860602D01*
X104547200Y-49860602D02*
X104594819Y-49955840D01*
X104594819Y-49955840D02*
X104594819Y-50146316D01*
X104594819Y-50146316D02*
X104547200Y-50241554D01*
X104547200Y-50241554D02*
X104451961Y-50336792D01*
X104451961Y-50336792D02*
X104261485Y-50384411D01*
X104261485Y-50384411D02*
X103928152Y-50384411D01*
X103928152Y-50384411D02*
X103737676Y-50336792D01*
X103737676Y-50336792D02*
X103642438Y-50241554D01*
X103642438Y-50241554D02*
X103594819Y-50146316D01*
X66494819Y-54908220D02*
X65494819Y-54908220D01*
X65494819Y-54908220D02*
X65494819Y-54527268D01*
X65494819Y-54527268D02*
X65542438Y-54432030D01*
X65542438Y-54432030D02*
X65590057Y-54384411D01*
X65590057Y-54384411D02*
X65685295Y-54336792D01*
X65685295Y-54336792D02*
X65828152Y-54336792D01*
X65828152Y-54336792D02*
X65923390Y-54384411D01*
X65923390Y-54384411D02*
X65971009Y-54432030D01*
X65971009Y-54432030D02*
X66018628Y-54527268D01*
X66018628Y-54527268D02*
X66018628Y-54908220D01*
X66494819Y-53336792D02*
X66018628Y-53670125D01*
X66494819Y-53908220D02*
X65494819Y-53908220D01*
X65494819Y-53908220D02*
X65494819Y-53527268D01*
X65494819Y-53527268D02*
X65542438Y-53432030D01*
X65542438Y-53432030D02*
X65590057Y-53384411D01*
X65590057Y-53384411D02*
X65685295Y-53336792D01*
X65685295Y-53336792D02*
X65828152Y-53336792D01*
X65828152Y-53336792D02*
X65923390Y-53384411D01*
X65923390Y-53384411D02*
X65971009Y-53432030D01*
X65971009Y-53432030D02*
X66018628Y-53527268D01*
X66018628Y-53527268D02*
X66018628Y-53908220D01*
X65542438Y-52384411D02*
X65494819Y-52479649D01*
X65494819Y-52479649D02*
X65494819Y-52622506D01*
X65494819Y-52622506D02*
X65542438Y-52765363D01*
X65542438Y-52765363D02*
X65637676Y-52860601D01*
X65637676Y-52860601D02*
X65732914Y-52908220D01*
X65732914Y-52908220D02*
X65923390Y-52955839D01*
X65923390Y-52955839D02*
X66066247Y-52955839D01*
X66066247Y-52955839D02*
X66256723Y-52908220D01*
X66256723Y-52908220D02*
X66351961Y-52860601D01*
X66351961Y-52860601D02*
X66447200Y-52765363D01*
X66447200Y-52765363D02*
X66494819Y-52622506D01*
X66494819Y-52622506D02*
X66494819Y-52527268D01*
X66494819Y-52527268D02*
X66447200Y-52384411D01*
X66447200Y-52384411D02*
X66399580Y-52336792D01*
X66399580Y-52336792D02*
X66066247Y-52336792D01*
X66066247Y-52336792D02*
X66066247Y-52527268D01*
X66113866Y-51908220D02*
X66113866Y-51146316D01*
X66494819Y-50193935D02*
X66494819Y-50670125D01*
X66494819Y-50670125D02*
X65494819Y-50670125D01*
X66209104Y-49908220D02*
X66209104Y-49432030D01*
X66494819Y-50003458D02*
X65494819Y-49670125D01*
X65494819Y-49670125D02*
X66494819Y-49336792D01*
X65494819Y-49146315D02*
X65494819Y-48574887D01*
X66494819Y-48860601D02*
X65494819Y-48860601D01*
X66399580Y-47670125D02*
X66447200Y-47717744D01*
X66447200Y-47717744D02*
X66494819Y-47860601D01*
X66494819Y-47860601D02*
X66494819Y-47955839D01*
X66494819Y-47955839D02*
X66447200Y-48098696D01*
X66447200Y-48098696D02*
X66351961Y-48193934D01*
X66351961Y-48193934D02*
X66256723Y-48241553D01*
X66256723Y-48241553D02*
X66066247Y-48289172D01*
X66066247Y-48289172D02*
X65923390Y-48289172D01*
X65923390Y-48289172D02*
X65732914Y-48241553D01*
X65732914Y-48241553D02*
X65637676Y-48193934D01*
X65637676Y-48193934D02*
X65542438Y-48098696D01*
X65542438Y-48098696D02*
X65494819Y-47955839D01*
X65494819Y-47955839D02*
X65494819Y-47860601D01*
X65494819Y-47860601D02*
X65542438Y-47717744D01*
X65542438Y-47717744D02*
X65590057Y-47670125D01*
X66494819Y-47241553D02*
X65494819Y-47241553D01*
X65971009Y-47241553D02*
X65971009Y-46670125D01*
X66494819Y-46670125D02*
X65494819Y-46670125D01*
X111739428Y-80734819D02*
X112234666Y-80734819D01*
X112234666Y-80734819D02*
X111920380Y-81115771D01*
X111920380Y-81115771D02*
X112034666Y-81115771D01*
X112034666Y-81115771D02*
X112104904Y-81163390D01*
X112104904Y-81163390D02*
X112137047Y-81211009D01*
X112137047Y-81211009D02*
X112163237Y-81306247D01*
X112163237Y-81306247D02*
X112133475Y-81544342D01*
X112133475Y-81544342D02*
X112083475Y-81639580D01*
X112083475Y-81639580D02*
X112039428Y-81687200D01*
X112039428Y-81687200D02*
X111957285Y-81734819D01*
X111957285Y-81734819D02*
X111728714Y-81734819D01*
X111728714Y-81734819D02*
X111658475Y-81687200D01*
X111658475Y-81687200D02*
X111626333Y-81639580D01*
X112729904Y-80734819D02*
X112806095Y-80734819D01*
X112806095Y-80734819D02*
X112876333Y-80782438D01*
X112876333Y-80782438D02*
X112908476Y-80830057D01*
X112908476Y-80830057D02*
X112934666Y-80925295D01*
X112934666Y-80925295D02*
X112948952Y-81115771D01*
X112948952Y-81115771D02*
X112919190Y-81353866D01*
X112919190Y-81353866D02*
X112857285Y-81544342D01*
X112857285Y-81544342D02*
X112807285Y-81639580D01*
X112807285Y-81639580D02*
X112763238Y-81687200D01*
X112763238Y-81687200D02*
X112681095Y-81734819D01*
X112681095Y-81734819D02*
X112604904Y-81734819D01*
X112604904Y-81734819D02*
X112534666Y-81687200D01*
X112534666Y-81687200D02*
X112502523Y-81639580D01*
X112502523Y-81639580D02*
X112476333Y-81544342D01*
X112476333Y-81544342D02*
X112462047Y-81353866D01*
X112462047Y-81353866D02*
X112491809Y-81115771D01*
X112491809Y-81115771D02*
X112553714Y-80925295D01*
X112553714Y-80925295D02*
X112603714Y-80830057D01*
X112603714Y-80830057D02*
X112647761Y-80782438D01*
X112647761Y-80782438D02*
X112729904Y-80734819D01*
X33512969Y-77813470D02*
X33036779Y-77813470D01*
X33036779Y-77813470D02*
X32989160Y-78289660D01*
X32989160Y-78289660D02*
X33036779Y-78242041D01*
X33036779Y-78242041D02*
X33132017Y-78194422D01*
X33132017Y-78194422D02*
X33370112Y-78194422D01*
X33370112Y-78194422D02*
X33465350Y-78242041D01*
X33465350Y-78242041D02*
X33512969Y-78289660D01*
X33512969Y-78289660D02*
X33560588Y-78384898D01*
X33560588Y-78384898D02*
X33560588Y-78622993D01*
X33560588Y-78622993D02*
X33512969Y-78718231D01*
X33512969Y-78718231D02*
X33465350Y-78765851D01*
X33465350Y-78765851D02*
X33370112Y-78813470D01*
X33370112Y-78813470D02*
X33132017Y-78813470D01*
X33132017Y-78813470D02*
X33036779Y-78765851D01*
X33036779Y-78765851D02*
X32989160Y-78718231D01*
X34512969Y-78813470D02*
X33941541Y-78813470D01*
X34227255Y-78813470D02*
X34227255Y-77813470D01*
X34227255Y-77813470D02*
X34132017Y-77956327D01*
X34132017Y-77956327D02*
X34036779Y-78051565D01*
X34036779Y-78051565D02*
X33941541Y-78099184D01*
X34893922Y-77908708D02*
X34941541Y-77861089D01*
X34941541Y-77861089D02*
X35036779Y-77813470D01*
X35036779Y-77813470D02*
X35274874Y-77813470D01*
X35274874Y-77813470D02*
X35370112Y-77861089D01*
X35370112Y-77861089D02*
X35417731Y-77908708D01*
X35417731Y-77908708D02*
X35465350Y-78003946D01*
X35465350Y-78003946D02*
X35465350Y-78099184D01*
X35465350Y-78099184D02*
X35417731Y-78242041D01*
X35417731Y-78242041D02*
X34846303Y-78813470D01*
X34846303Y-78813470D02*
X35465350Y-78813470D01*
X35893922Y-78813470D02*
X35893922Y-77813470D01*
X36465350Y-78813470D02*
X36036779Y-78242041D01*
X36465350Y-77813470D02*
X35893922Y-78384898D01*
X36893922Y-78813470D02*
X36893922Y-78146803D01*
X36893922Y-77813470D02*
X36846303Y-77861089D01*
X36846303Y-77861089D02*
X36893922Y-77908708D01*
X36893922Y-77908708D02*
X36941541Y-77861089D01*
X36941541Y-77861089D02*
X36893922Y-77813470D01*
X36893922Y-77813470D02*
X36893922Y-77908708D01*
X37703445Y-78289660D02*
X37846302Y-78337279D01*
X37846302Y-78337279D02*
X37893921Y-78384898D01*
X37893921Y-78384898D02*
X37941540Y-78480136D01*
X37941540Y-78480136D02*
X37941540Y-78622993D01*
X37941540Y-78622993D02*
X37893921Y-78718231D01*
X37893921Y-78718231D02*
X37846302Y-78765851D01*
X37846302Y-78765851D02*
X37751064Y-78813470D01*
X37751064Y-78813470D02*
X37370112Y-78813470D01*
X37370112Y-78813470D02*
X37370112Y-77813470D01*
X37370112Y-77813470D02*
X37703445Y-77813470D01*
X37703445Y-77813470D02*
X37798683Y-77861089D01*
X37798683Y-77861089D02*
X37846302Y-77908708D01*
X37846302Y-77908708D02*
X37893921Y-78003946D01*
X37893921Y-78003946D02*
X37893921Y-78099184D01*
X37893921Y-78099184D02*
X37846302Y-78194422D01*
X37846302Y-78194422D02*
X37798683Y-78242041D01*
X37798683Y-78242041D02*
X37703445Y-78289660D01*
X37703445Y-78289660D02*
X37370112Y-78289660D01*
X39132017Y-78813470D02*
X39132017Y-77813470D01*
X39132017Y-77813470D02*
X39512969Y-77813470D01*
X39512969Y-77813470D02*
X39608207Y-77861089D01*
X39608207Y-77861089D02*
X39655826Y-77908708D01*
X39655826Y-77908708D02*
X39703445Y-78003946D01*
X39703445Y-78003946D02*
X39703445Y-78146803D01*
X39703445Y-78146803D02*
X39655826Y-78242041D01*
X39655826Y-78242041D02*
X39608207Y-78289660D01*
X39608207Y-78289660D02*
X39512969Y-78337279D01*
X39512969Y-78337279D02*
X39132017Y-78337279D01*
X40703445Y-78813470D02*
X40370112Y-78337279D01*
X40132017Y-78813470D02*
X40132017Y-77813470D01*
X40132017Y-77813470D02*
X40512969Y-77813470D01*
X40512969Y-77813470D02*
X40608207Y-77861089D01*
X40608207Y-77861089D02*
X40655826Y-77908708D01*
X40655826Y-77908708D02*
X40703445Y-78003946D01*
X40703445Y-78003946D02*
X40703445Y-78146803D01*
X40703445Y-78146803D02*
X40655826Y-78242041D01*
X40655826Y-78242041D02*
X40608207Y-78289660D01*
X40608207Y-78289660D02*
X40512969Y-78337279D01*
X40512969Y-78337279D02*
X40132017Y-78337279D01*
X41655826Y-77861089D02*
X41560588Y-77813470D01*
X41560588Y-77813470D02*
X41417731Y-77813470D01*
X41417731Y-77813470D02*
X41274874Y-77861089D01*
X41274874Y-77861089D02*
X41179636Y-77956327D01*
X41179636Y-77956327D02*
X41132017Y-78051565D01*
X41132017Y-78051565D02*
X41084398Y-78242041D01*
X41084398Y-78242041D02*
X41084398Y-78384898D01*
X41084398Y-78384898D02*
X41132017Y-78575374D01*
X41132017Y-78575374D02*
X41179636Y-78670612D01*
X41179636Y-78670612D02*
X41274874Y-78765851D01*
X41274874Y-78765851D02*
X41417731Y-78813470D01*
X41417731Y-78813470D02*
X41512969Y-78813470D01*
X41512969Y-78813470D02*
X41655826Y-78765851D01*
X41655826Y-78765851D02*
X41703445Y-78718231D01*
X41703445Y-78718231D02*
X41703445Y-78384898D01*
X41703445Y-78384898D02*
X41512969Y-78384898D01*
X42132017Y-78432517D02*
X42893922Y-78432517D01*
X43703445Y-78289660D02*
X43370112Y-78289660D01*
X43370112Y-78813470D02*
X43370112Y-77813470D01*
X43370112Y-77813470D02*
X43846302Y-77813470D01*
X44703445Y-78813470D02*
X44227255Y-78813470D01*
X44227255Y-78813470D02*
X44227255Y-77813470D01*
X44989160Y-78527755D02*
X45465350Y-78527755D01*
X44893922Y-78813470D02*
X45227255Y-77813470D01*
X45227255Y-77813470D02*
X45560588Y-78813470D01*
X45846303Y-78765851D02*
X45989160Y-78813470D01*
X45989160Y-78813470D02*
X46227255Y-78813470D01*
X46227255Y-78813470D02*
X46322493Y-78765851D01*
X46322493Y-78765851D02*
X46370112Y-78718231D01*
X46370112Y-78718231D02*
X46417731Y-78622993D01*
X46417731Y-78622993D02*
X46417731Y-78527755D01*
X46417731Y-78527755D02*
X46370112Y-78432517D01*
X46370112Y-78432517D02*
X46322493Y-78384898D01*
X46322493Y-78384898D02*
X46227255Y-78337279D01*
X46227255Y-78337279D02*
X46036779Y-78289660D01*
X46036779Y-78289660D02*
X45941541Y-78242041D01*
X45941541Y-78242041D02*
X45893922Y-78194422D01*
X45893922Y-78194422D02*
X45846303Y-78099184D01*
X45846303Y-78099184D02*
X45846303Y-78003946D01*
X45846303Y-78003946D02*
X45893922Y-77908708D01*
X45893922Y-77908708D02*
X45941541Y-77861089D01*
X45941541Y-77861089D02*
X46036779Y-77813470D01*
X46036779Y-77813470D02*
X46274874Y-77813470D01*
X46274874Y-77813470D02*
X46417731Y-77861089D01*
X46846303Y-78813470D02*
X46846303Y-77813470D01*
X46846303Y-78289660D02*
X47417731Y-78289660D01*
X47417731Y-78813470D02*
X47417731Y-77813470D01*
X36014819Y-54336792D02*
X35538628Y-54670125D01*
X36014819Y-54908220D02*
X35014819Y-54908220D01*
X35014819Y-54908220D02*
X35014819Y-54527268D01*
X35014819Y-54527268D02*
X35062438Y-54432030D01*
X35062438Y-54432030D02*
X35110057Y-54384411D01*
X35110057Y-54384411D02*
X35205295Y-54336792D01*
X35205295Y-54336792D02*
X35348152Y-54336792D01*
X35348152Y-54336792D02*
X35443390Y-54384411D01*
X35443390Y-54384411D02*
X35491009Y-54432030D01*
X35491009Y-54432030D02*
X35538628Y-54527268D01*
X35538628Y-54527268D02*
X35538628Y-54908220D01*
X35491009Y-53908220D02*
X35491009Y-53574887D01*
X36014819Y-53432030D02*
X36014819Y-53908220D01*
X36014819Y-53908220D02*
X35014819Y-53908220D01*
X35014819Y-53908220D02*
X35014819Y-53432030D01*
X35062438Y-52479649D02*
X35014819Y-52574887D01*
X35014819Y-52574887D02*
X35014819Y-52717744D01*
X35014819Y-52717744D02*
X35062438Y-52860601D01*
X35062438Y-52860601D02*
X35157676Y-52955839D01*
X35157676Y-52955839D02*
X35252914Y-53003458D01*
X35252914Y-53003458D02*
X35443390Y-53051077D01*
X35443390Y-53051077D02*
X35586247Y-53051077D01*
X35586247Y-53051077D02*
X35776723Y-53003458D01*
X35776723Y-53003458D02*
X35871961Y-52955839D01*
X35871961Y-52955839D02*
X35967200Y-52860601D01*
X35967200Y-52860601D02*
X36014819Y-52717744D01*
X36014819Y-52717744D02*
X36014819Y-52622506D01*
X36014819Y-52622506D02*
X35967200Y-52479649D01*
X35967200Y-52479649D02*
X35919580Y-52432030D01*
X35919580Y-52432030D02*
X35586247Y-52432030D01*
X35586247Y-52432030D02*
X35586247Y-52622506D01*
X35633866Y-52003458D02*
X35633866Y-51241554D01*
X36014819Y-50765363D02*
X35014819Y-50765363D01*
X35014819Y-50765363D02*
X35014819Y-50527268D01*
X35014819Y-50527268D02*
X35062438Y-50384411D01*
X35062438Y-50384411D02*
X35157676Y-50289173D01*
X35157676Y-50289173D02*
X35252914Y-50241554D01*
X35252914Y-50241554D02*
X35443390Y-50193935D01*
X35443390Y-50193935D02*
X35586247Y-50193935D01*
X35586247Y-50193935D02*
X35776723Y-50241554D01*
X35776723Y-50241554D02*
X35871961Y-50289173D01*
X35871961Y-50289173D02*
X35967200Y-50384411D01*
X35967200Y-50384411D02*
X36014819Y-50527268D01*
X36014819Y-50527268D02*
X36014819Y-50765363D01*
X35491009Y-49765363D02*
X35491009Y-49432030D01*
X36014819Y-49289173D02*
X36014819Y-49765363D01*
X36014819Y-49765363D02*
X35014819Y-49765363D01*
X35014819Y-49765363D02*
X35014819Y-49289173D01*
X35919580Y-48289173D02*
X35967200Y-48336792D01*
X35967200Y-48336792D02*
X36014819Y-48479649D01*
X36014819Y-48479649D02*
X36014819Y-48574887D01*
X36014819Y-48574887D02*
X35967200Y-48717744D01*
X35967200Y-48717744D02*
X35871961Y-48812982D01*
X35871961Y-48812982D02*
X35776723Y-48860601D01*
X35776723Y-48860601D02*
X35586247Y-48908220D01*
X35586247Y-48908220D02*
X35443390Y-48908220D01*
X35443390Y-48908220D02*
X35252914Y-48860601D01*
X35252914Y-48860601D02*
X35157676Y-48812982D01*
X35157676Y-48812982D02*
X35062438Y-48717744D01*
X35062438Y-48717744D02*
X35014819Y-48574887D01*
X35014819Y-48574887D02*
X35014819Y-48479649D01*
X35014819Y-48479649D02*
X35062438Y-48336792D01*
X35062438Y-48336792D02*
X35110057Y-48289173D01*
X35014819Y-47670125D02*
X35014819Y-47479649D01*
X35014819Y-47479649D02*
X35062438Y-47384411D01*
X35062438Y-47384411D02*
X35157676Y-47289173D01*
X35157676Y-47289173D02*
X35348152Y-47241554D01*
X35348152Y-47241554D02*
X35681485Y-47241554D01*
X35681485Y-47241554D02*
X35871961Y-47289173D01*
X35871961Y-47289173D02*
X35967200Y-47384411D01*
X35967200Y-47384411D02*
X36014819Y-47479649D01*
X36014819Y-47479649D02*
X36014819Y-47670125D01*
X36014819Y-47670125D02*
X35967200Y-47765363D01*
X35967200Y-47765363D02*
X35871961Y-47860601D01*
X35871961Y-47860601D02*
X35681485Y-47908220D01*
X35681485Y-47908220D02*
X35348152Y-47908220D01*
X35348152Y-47908220D02*
X35157676Y-47860601D01*
X35157676Y-47860601D02*
X35062438Y-47765363D01*
X35062438Y-47765363D02*
X35014819Y-47670125D01*
X36014819Y-46812982D02*
X35014819Y-46812982D01*
X35014819Y-46812982D02*
X35014819Y-46574887D01*
X35014819Y-46574887D02*
X35062438Y-46432030D01*
X35062438Y-46432030D02*
X35157676Y-46336792D01*
X35157676Y-46336792D02*
X35252914Y-46289173D01*
X35252914Y-46289173D02*
X35443390Y-46241554D01*
X35443390Y-46241554D02*
X35586247Y-46241554D01*
X35586247Y-46241554D02*
X35776723Y-46289173D01*
X35776723Y-46289173D02*
X35871961Y-46336792D01*
X35871961Y-46336792D02*
X35967200Y-46432030D01*
X35967200Y-46432030D02*
X36014819Y-46574887D01*
X36014819Y-46574887D02*
X36014819Y-46812982D01*
X35491009Y-45812982D02*
X35491009Y-45479649D01*
X36014819Y-45336792D02*
X36014819Y-45812982D01*
X36014819Y-45812982D02*
X35014819Y-45812982D01*
X35014819Y-45812982D02*
X35014819Y-45336792D01*
D12*
G36*
X69634686Y-58515147D02*
G01*
X69663863Y-58544324D01*
X69708570Y-58633737D01*
X69708570Y-58777204D01*
X69663863Y-58866617D01*
X69626858Y-58903622D01*
X69537446Y-58948328D01*
X69151427Y-58948328D01*
X69151427Y-58462614D01*
X69477084Y-58462614D01*
X69634686Y-58515147D01*
G37*
G36*
X69555431Y-57793035D02*
G01*
X69592435Y-57830039D01*
X69637142Y-57919452D01*
X69637142Y-57991489D01*
X69592435Y-58080902D01*
X69555431Y-58117907D01*
X69466017Y-58162614D01*
X69151427Y-58162614D01*
X69151427Y-57748328D01*
X69466017Y-57748328D01*
X69555431Y-57793035D01*
G37*
G36*
X77412575Y-57793035D02*
G01*
X77449579Y-57830039D01*
X77494285Y-57919451D01*
X77494285Y-58062918D01*
X77449578Y-58152331D01*
X77412573Y-58189336D01*
X77323161Y-58234042D01*
X76937142Y-58234042D01*
X76937142Y-57748328D01*
X77323161Y-57748328D01*
X77412575Y-57793035D01*
G37*
G36*
X78912574Y-57793035D02*
G01*
X79008840Y-57889301D01*
X79065714Y-58116792D01*
X79065714Y-58579863D01*
X79008840Y-58807354D01*
X78912573Y-58903622D01*
X78823161Y-58948328D01*
X78608267Y-58948328D01*
X78518853Y-58903621D01*
X78422586Y-58807354D01*
X78365714Y-58579864D01*
X78365714Y-58116791D01*
X78422586Y-57889302D01*
X78518853Y-57793034D01*
X78608267Y-57748328D01*
X78823161Y-57748328D01*
X78912574Y-57793035D01*
G37*
G36*
X81222857Y-59462614D02*
G01*
X68637141Y-59462614D01*
X68637141Y-59098328D01*
X68851427Y-59098328D01*
X68871523Y-59173328D01*
X68926427Y-59228232D01*
X69001427Y-59248328D01*
X69572856Y-59248328D01*
X69606159Y-59239404D01*
X69639938Y-59232492D01*
X69782795Y-59161064D01*
X69800864Y-59145040D01*
X69821779Y-59132966D01*
X69856417Y-59098328D01*
X70351427Y-59098328D01*
X70371523Y-59173328D01*
X70426427Y-59228232D01*
X70501427Y-59248328D01*
X70576427Y-59228232D01*
X70631331Y-59173328D01*
X70651427Y-59098328D01*
X70651427Y-58163161D01*
X71228334Y-59172749D01*
X71228576Y-59172993D01*
X71228666Y-59173328D01*
X71255886Y-59200548D01*
X71282992Y-59227897D01*
X71283326Y-59227988D01*
X71283570Y-59228232D01*
X71320670Y-59238172D01*
X71357902Y-59248327D01*
X71358237Y-59248238D01*
X71358570Y-59248328D01*
X71395669Y-59238387D01*
X71432991Y-59228565D01*
X71433236Y-59228321D01*
X71433570Y-59228232D01*
X71460734Y-59201067D01*
X71488139Y-59173906D01*
X71488230Y-59173571D01*
X71488474Y-59173328D01*
X71498414Y-59136227D01*
X71508569Y-59098996D01*
X71508480Y-59098660D01*
X71508570Y-59098328D01*
X71508570Y-58812614D01*
X71922856Y-58812614D01*
X71931779Y-58845915D01*
X71938692Y-58879696D01*
X72010121Y-59022553D01*
X72026143Y-59040621D01*
X72038219Y-59061537D01*
X72109648Y-59132966D01*
X72130562Y-59145040D01*
X72148632Y-59161064D01*
X72291490Y-59232492D01*
X72325265Y-59239403D01*
X72358571Y-59248328D01*
X72644285Y-59248328D01*
X72677588Y-59239404D01*
X72711367Y-59232492D01*
X72854224Y-59161064D01*
X72872293Y-59145040D01*
X72893208Y-59132966D01*
X72964637Y-59061537D01*
X72976711Y-59040622D01*
X72992735Y-59022553D01*
X73064163Y-58879695D01*
X73071074Y-58845919D01*
X73079999Y-58812614D01*
X73079999Y-57604796D01*
X73280139Y-57604796D01*
X73303451Y-57678859D01*
X73780000Y-58427721D01*
X73780000Y-59098328D01*
X73800096Y-59173328D01*
X73855000Y-59228232D01*
X73930000Y-59248328D01*
X74005000Y-59228232D01*
X74059904Y-59173328D01*
X74080000Y-59098328D01*
X76637142Y-59098328D01*
X76657238Y-59173328D01*
X76712142Y-59228232D01*
X76787142Y-59248328D01*
X76862142Y-59228232D01*
X76917046Y-59173328D01*
X76937142Y-59098328D01*
X76937142Y-58534042D01*
X77066187Y-58534042D01*
X77521400Y-59184347D01*
X77580873Y-59234265D01*
X77657338Y-59247759D01*
X77730304Y-59221213D01*
X77780222Y-59161740D01*
X77793716Y-59085275D01*
X77767170Y-59012309D01*
X77477383Y-58598328D01*
X78065714Y-58598328D01*
X78070504Y-58616205D01*
X78070193Y-58634708D01*
X78141621Y-58920422D01*
X78142253Y-58921560D01*
X78142253Y-58922865D01*
X78161065Y-58955448D01*
X78179307Y-58988309D01*
X78180424Y-58988979D01*
X78181076Y-58990108D01*
X78323934Y-59132966D01*
X78344848Y-59145040D01*
X78362918Y-59161064D01*
X78505776Y-59232492D01*
X78539551Y-59239403D01*
X78572857Y-59248328D01*
X78858571Y-59248328D01*
X78891874Y-59239404D01*
X78925653Y-59232492D01*
X79068510Y-59161064D01*
X79086579Y-59145040D01*
X79107494Y-59132966D01*
X79142132Y-59098328D01*
X79708571Y-59098328D01*
X79728667Y-59173328D01*
X79783571Y-59228232D01*
X79858571Y-59248328D01*
X79933571Y-59228232D01*
X79988475Y-59173328D01*
X80008571Y-59098328D01*
X80008571Y-58274461D01*
X80222644Y-58733190D01*
X80231151Y-58743322D01*
X80235673Y-58755757D01*
X80255728Y-58772595D01*
X80272571Y-58792656D01*
X80285007Y-58797178D01*
X80295138Y-58805684D01*
X80320922Y-58810238D01*
X80345542Y-58819191D01*
X80358573Y-58816889D01*
X80371600Y-58819190D01*
X80396208Y-58810241D01*
X80422004Y-58805685D01*
X80432138Y-58797175D01*
X80444571Y-58792655D01*
X80461408Y-58772600D01*
X80481469Y-58755758D01*
X80485991Y-58743321D01*
X80494498Y-58733190D01*
X80708571Y-58274462D01*
X80708571Y-59098328D01*
X80728667Y-59173328D01*
X80783571Y-59228232D01*
X80858571Y-59248328D01*
X80933571Y-59228232D01*
X80988475Y-59173328D01*
X81008571Y-59098328D01*
X81008571Y-57598328D01*
X81006842Y-57591875D01*
X81008004Y-57585298D01*
X80996891Y-57554737D01*
X80988475Y-57523328D01*
X80983751Y-57518604D01*
X80981469Y-57512327D01*
X80956562Y-57491415D01*
X80933571Y-57468424D01*
X80927120Y-57466695D01*
X80922004Y-57462400D01*
X80889973Y-57456742D01*
X80858571Y-57448328D01*
X80852121Y-57450056D01*
X80845542Y-57448894D01*
X80814974Y-57460009D01*
X80783571Y-57468424D01*
X80778848Y-57473146D01*
X80772571Y-57475429D01*
X80751661Y-57500333D01*
X80728667Y-57523328D01*
X80726938Y-57529780D01*
X80722644Y-57534895D01*
X80358571Y-58315051D01*
X79994498Y-57534895D01*
X79990203Y-57529780D01*
X79988475Y-57523328D01*
X79965477Y-57500330D01*
X79944571Y-57475430D01*
X79938294Y-57473147D01*
X79933571Y-57468424D01*
X79902157Y-57460006D01*
X79871600Y-57448895D01*
X79865022Y-57450056D01*
X79858571Y-57448328D01*
X79827157Y-57456745D01*
X79795138Y-57462401D01*
X79790023Y-57466695D01*
X79783571Y-57468424D01*
X79760573Y-57491421D01*
X79735673Y-57512328D01*
X79733390Y-57518604D01*
X79728667Y-57523328D01*
X79720249Y-57554741D01*
X79709138Y-57585299D01*
X79710299Y-57591876D01*
X79708571Y-57598328D01*
X79708571Y-59098328D01*
X79142132Y-59098328D01*
X79250351Y-58990108D01*
X79251002Y-58988979D01*
X79252120Y-58988309D01*
X79270376Y-58955422D01*
X79289174Y-58922864D01*
X79289174Y-58921561D01*
X79289806Y-58920423D01*
X79361235Y-58634709D01*
X79360923Y-58616204D01*
X79365714Y-58598328D01*
X79365714Y-58098328D01*
X79360923Y-58080451D01*
X79361235Y-58061947D01*
X79289806Y-57776233D01*
X79289174Y-57775094D01*
X79289174Y-57773791D01*
X79270368Y-57741219D01*
X79252120Y-57708347D01*
X79251002Y-57707676D01*
X79250351Y-57706548D01*
X79107494Y-57563691D01*
X79086578Y-57551615D01*
X79068510Y-57535593D01*
X78925653Y-57464164D01*
X78891872Y-57457251D01*
X78858571Y-57448328D01*
X78572857Y-57448328D01*
X78539556Y-57457250D01*
X78505774Y-57464164D01*
X78362918Y-57535593D01*
X78344848Y-57551615D01*
X78323934Y-57563691D01*
X78181076Y-57706548D01*
X78180424Y-57707676D01*
X78179307Y-57708347D01*
X78161065Y-57741207D01*
X78142253Y-57773791D01*
X78142253Y-57775095D01*
X78141621Y-57776234D01*
X78070193Y-58061948D01*
X78070504Y-58080450D01*
X78065714Y-58098328D01*
X78065714Y-58598328D01*
X77477383Y-58598328D01*
X77421843Y-58518985D01*
X77425653Y-58518206D01*
X77568510Y-58446778D01*
X77586579Y-58430754D01*
X77607494Y-58418680D01*
X77678923Y-58347251D01*
X77690997Y-58326336D01*
X77707021Y-58308267D01*
X77778449Y-58165409D01*
X77785360Y-58131633D01*
X77794285Y-58098328D01*
X77794285Y-57884042D01*
X77785360Y-57850736D01*
X77778449Y-57816961D01*
X77707021Y-57674103D01*
X77690997Y-57656033D01*
X77678922Y-57635118D01*
X77607493Y-57563690D01*
X77586578Y-57551615D01*
X77568510Y-57535593D01*
X77425653Y-57464164D01*
X77391872Y-57457251D01*
X77358571Y-57448328D01*
X76787142Y-57448328D01*
X76712142Y-57468424D01*
X76657238Y-57523328D01*
X76637142Y-57598328D01*
X76637142Y-59098328D01*
X74080000Y-59098328D01*
X74080000Y-58526900D01*
X74779999Y-58526900D01*
X74800095Y-58601900D01*
X74854999Y-58656804D01*
X74929999Y-58676900D01*
X76072857Y-58676900D01*
X76147857Y-58656804D01*
X76202761Y-58601900D01*
X76222857Y-58526900D01*
X76202761Y-58451900D01*
X76147857Y-58396996D01*
X76072857Y-58376900D01*
X74929999Y-58376900D01*
X74854999Y-58396996D01*
X74800095Y-58451900D01*
X74779999Y-58526900D01*
X74080000Y-58526900D01*
X74080000Y-58427721D01*
X74556549Y-57678860D01*
X74579860Y-57604796D01*
X74563017Y-57528999D01*
X74510531Y-57471779D01*
X74436467Y-57448468D01*
X74360670Y-57465311D01*
X74303451Y-57517797D01*
X73930000Y-58104647D01*
X73556549Y-57517797D01*
X73499329Y-57465311D01*
X73423532Y-57448467D01*
X73349469Y-57471779D01*
X73296983Y-57528999D01*
X73280139Y-57604796D01*
X73079999Y-57604796D01*
X73079999Y-57598328D01*
X73059903Y-57523328D01*
X73004999Y-57468424D01*
X72929999Y-57448328D01*
X72854999Y-57468424D01*
X72800095Y-57523328D01*
X72779999Y-57598328D01*
X72779999Y-58777204D01*
X72735292Y-58866617D01*
X72698287Y-58903622D01*
X72608875Y-58948328D01*
X72393981Y-58948328D01*
X72304567Y-58903621D01*
X72267563Y-58866617D01*
X72222856Y-58777203D01*
X72222856Y-57598328D01*
X72202760Y-57523328D01*
X72147856Y-57468424D01*
X72072856Y-57448328D01*
X71997856Y-57468424D01*
X71942952Y-57523328D01*
X71922856Y-57598328D01*
X71922856Y-58812614D01*
X71508570Y-58812614D01*
X71508570Y-57598328D01*
X71488474Y-57523328D01*
X71433570Y-57468424D01*
X71358570Y-57448328D01*
X71283570Y-57468424D01*
X71228666Y-57523328D01*
X71208570Y-57598328D01*
X71208570Y-58533492D01*
X70631663Y-57523907D01*
X70631420Y-57523662D01*
X70631331Y-57523328D01*
X70604110Y-57496107D01*
X70577005Y-57468759D01*
X70576670Y-57468667D01*
X70576427Y-57468424D01*
X70539326Y-57458483D01*
X70502095Y-57448329D01*
X70501759Y-57448417D01*
X70501427Y-57448328D01*
X70464221Y-57458297D01*
X70427006Y-57468092D01*
X70426761Y-57468334D01*
X70426427Y-57468424D01*
X70399206Y-57495644D01*
X70371858Y-57522750D01*
X70371766Y-57523084D01*
X70371523Y-57523328D01*
X70361582Y-57560428D01*
X70351428Y-57597660D01*
X70351516Y-57597995D01*
X70351427Y-57598328D01*
X70351427Y-59098328D01*
X69856417Y-59098328D01*
X69893208Y-59061537D01*
X69905282Y-59040622D01*
X69921306Y-59022553D01*
X69992734Y-58879695D01*
X69999645Y-58845919D01*
X70008570Y-58812614D01*
X70008570Y-58598328D01*
X69999645Y-58565022D01*
X69992734Y-58531247D01*
X69921306Y-58388389D01*
X69905282Y-58370319D01*
X69893208Y-58349405D01*
X69821779Y-58277976D01*
X69820414Y-58277187D01*
X69821779Y-58275823D01*
X69833854Y-58254907D01*
X69849877Y-58236839D01*
X69921306Y-58093983D01*
X69928219Y-58060200D01*
X69937142Y-58026900D01*
X69937142Y-57884042D01*
X69928219Y-57850741D01*
X69921306Y-57816959D01*
X69849877Y-57674103D01*
X69833854Y-57656034D01*
X69821779Y-57635119D01*
X69750351Y-57563691D01*
X69729436Y-57551616D01*
X69711367Y-57535593D01*
X69568509Y-57464164D01*
X69534728Y-57457251D01*
X69501427Y-57448328D01*
X69001427Y-57448328D01*
X68926427Y-57468424D01*
X68871523Y-57523328D01*
X68851427Y-57598328D01*
X68851427Y-59098328D01*
X68637141Y-59098328D01*
X68637141Y-57234042D01*
X81222857Y-57234042D01*
X81222857Y-59462614D01*
G37*
D10*
X41460057Y-41012856D02*
X41412438Y-40965237D01*
X41412438Y-40965237D02*
X41364819Y-40869999D01*
X41364819Y-40869999D02*
X41364819Y-40631904D01*
X41364819Y-40631904D02*
X41412438Y-40536666D01*
X41412438Y-40536666D02*
X41460057Y-40489047D01*
X41460057Y-40489047D02*
X41555295Y-40441428D01*
X41555295Y-40441428D02*
X41650533Y-40441428D01*
X41650533Y-40441428D02*
X41793390Y-40489047D01*
X41793390Y-40489047D02*
X42364819Y-41060475D01*
X42364819Y-41060475D02*
X42364819Y-40441428D01*
X41460057Y-40060475D02*
X41412438Y-40012856D01*
X41412438Y-40012856D02*
X41364819Y-39917618D01*
X41364819Y-39917618D02*
X41364819Y-39679523D01*
X41364819Y-39679523D02*
X41412438Y-39584285D01*
X41412438Y-39584285D02*
X41460057Y-39536666D01*
X41460057Y-39536666D02*
X41555295Y-39489047D01*
X41555295Y-39489047D02*
X41650533Y-39489047D01*
X41650533Y-39489047D02*
X41793390Y-39536666D01*
X41793390Y-39536666D02*
X42364819Y-40108094D01*
X42364819Y-40108094D02*
X42364819Y-39489047D01*
X41698152Y-39060475D02*
X42698152Y-39060475D01*
X41745771Y-39060475D02*
X41698152Y-38965237D01*
X41698152Y-38965237D02*
X41698152Y-38774761D01*
X41698152Y-38774761D02*
X41745771Y-38679523D01*
X41745771Y-38679523D02*
X41793390Y-38631904D01*
X41793390Y-38631904D02*
X41888628Y-38584285D01*
X41888628Y-38584285D02*
X42174342Y-38584285D01*
X42174342Y-38584285D02*
X42269580Y-38631904D01*
X42269580Y-38631904D02*
X42317200Y-38679523D01*
X42317200Y-38679523D02*
X42364819Y-38774761D01*
X42364819Y-38774761D02*
X42364819Y-38965237D01*
X42364819Y-38965237D02*
X42317200Y-39060475D01*
X41841009Y-37822380D02*
X41841009Y-38155713D01*
X42364819Y-38155713D02*
X41364819Y-38155713D01*
X41364819Y-38155713D02*
X41364819Y-37679523D01*
X86441541Y-78099819D02*
X87060588Y-78099819D01*
X87060588Y-78099819D02*
X86727255Y-78480771D01*
X86727255Y-78480771D02*
X86870112Y-78480771D01*
X86870112Y-78480771D02*
X86965350Y-78528390D01*
X86965350Y-78528390D02*
X87012969Y-78576009D01*
X87012969Y-78576009D02*
X87060588Y-78671247D01*
X87060588Y-78671247D02*
X87060588Y-78909342D01*
X87060588Y-78909342D02*
X87012969Y-79004580D01*
X87012969Y-79004580D02*
X86965350Y-79052200D01*
X86965350Y-79052200D02*
X86870112Y-79099819D01*
X86870112Y-79099819D02*
X86584398Y-79099819D01*
X86584398Y-79099819D02*
X86489160Y-79052200D01*
X86489160Y-79052200D02*
X86441541Y-79004580D01*
X87441541Y-78195057D02*
X87489160Y-78147438D01*
X87489160Y-78147438D02*
X87584398Y-78099819D01*
X87584398Y-78099819D02*
X87822493Y-78099819D01*
X87822493Y-78099819D02*
X87917731Y-78147438D01*
X87917731Y-78147438D02*
X87965350Y-78195057D01*
X87965350Y-78195057D02*
X88012969Y-78290295D01*
X88012969Y-78290295D02*
X88012969Y-78385533D01*
X88012969Y-78385533D02*
X87965350Y-78528390D01*
X87965350Y-78528390D02*
X87393922Y-79099819D01*
X87393922Y-79099819D02*
X88012969Y-79099819D01*
X88441541Y-79099819D02*
X88441541Y-78099819D01*
X89012969Y-79099819D02*
X88584398Y-78528390D01*
X89012969Y-78099819D02*
X88441541Y-78671247D01*
X89441541Y-79099819D02*
X89441541Y-78433152D01*
X89441541Y-78099819D02*
X89393922Y-78147438D01*
X89393922Y-78147438D02*
X89441541Y-78195057D01*
X89441541Y-78195057D02*
X89489160Y-78147438D01*
X89489160Y-78147438D02*
X89441541Y-78099819D01*
X89441541Y-78099819D02*
X89441541Y-78195057D01*
X90251064Y-78576009D02*
X90393921Y-78623628D01*
X90393921Y-78623628D02*
X90441540Y-78671247D01*
X90441540Y-78671247D02*
X90489159Y-78766485D01*
X90489159Y-78766485D02*
X90489159Y-78909342D01*
X90489159Y-78909342D02*
X90441540Y-79004580D01*
X90441540Y-79004580D02*
X90393921Y-79052200D01*
X90393921Y-79052200D02*
X90298683Y-79099819D01*
X90298683Y-79099819D02*
X89917731Y-79099819D01*
X89917731Y-79099819D02*
X89917731Y-78099819D01*
X89917731Y-78099819D02*
X90251064Y-78099819D01*
X90251064Y-78099819D02*
X90346302Y-78147438D01*
X90346302Y-78147438D02*
X90393921Y-78195057D01*
X90393921Y-78195057D02*
X90441540Y-78290295D01*
X90441540Y-78290295D02*
X90441540Y-78385533D01*
X90441540Y-78385533D02*
X90393921Y-78480771D01*
X90393921Y-78480771D02*
X90346302Y-78528390D01*
X90346302Y-78528390D02*
X90251064Y-78576009D01*
X90251064Y-78576009D02*
X89917731Y-78576009D01*
X92251064Y-79004580D02*
X92203445Y-79052200D01*
X92203445Y-79052200D02*
X92060588Y-79099819D01*
X92060588Y-79099819D02*
X91965350Y-79099819D01*
X91965350Y-79099819D02*
X91822493Y-79052200D01*
X91822493Y-79052200D02*
X91727255Y-78956961D01*
X91727255Y-78956961D02*
X91679636Y-78861723D01*
X91679636Y-78861723D02*
X91632017Y-78671247D01*
X91632017Y-78671247D02*
X91632017Y-78528390D01*
X91632017Y-78528390D02*
X91679636Y-78337914D01*
X91679636Y-78337914D02*
X91727255Y-78242676D01*
X91727255Y-78242676D02*
X91822493Y-78147438D01*
X91822493Y-78147438D02*
X91965350Y-78099819D01*
X91965350Y-78099819D02*
X92060588Y-78099819D01*
X92060588Y-78099819D02*
X92203445Y-78147438D01*
X92203445Y-78147438D02*
X92251064Y-78195057D01*
X92679636Y-79099819D02*
X92679636Y-78099819D01*
X92679636Y-78576009D02*
X93251064Y-78576009D01*
X93251064Y-79099819D02*
X93251064Y-78099819D01*
X94298683Y-79099819D02*
X93965350Y-78623628D01*
X93727255Y-79099819D02*
X93727255Y-78099819D01*
X93727255Y-78099819D02*
X94108207Y-78099819D01*
X94108207Y-78099819D02*
X94203445Y-78147438D01*
X94203445Y-78147438D02*
X94251064Y-78195057D01*
X94251064Y-78195057D02*
X94298683Y-78290295D01*
X94298683Y-78290295D02*
X94298683Y-78433152D01*
X94298683Y-78433152D02*
X94251064Y-78528390D01*
X94251064Y-78528390D02*
X94203445Y-78576009D01*
X94203445Y-78576009D02*
X94108207Y-78623628D01*
X94108207Y-78623628D02*
X93727255Y-78623628D01*
X94727255Y-78718866D02*
X95489160Y-78718866D01*
X96536778Y-79099819D02*
X96203445Y-78623628D01*
X95965350Y-79099819D02*
X95965350Y-78099819D01*
X95965350Y-78099819D02*
X96346302Y-78099819D01*
X96346302Y-78099819D02*
X96441540Y-78147438D01*
X96441540Y-78147438D02*
X96489159Y-78195057D01*
X96489159Y-78195057D02*
X96536778Y-78290295D01*
X96536778Y-78290295D02*
X96536778Y-78433152D01*
X96536778Y-78433152D02*
X96489159Y-78528390D01*
X96489159Y-78528390D02*
X96441540Y-78576009D01*
X96441540Y-78576009D02*
X96346302Y-78623628D01*
X96346302Y-78623628D02*
X95965350Y-78623628D01*
X96917731Y-78814104D02*
X97393921Y-78814104D01*
X96822493Y-79099819D02*
X97155826Y-78099819D01*
X97155826Y-78099819D02*
X97489159Y-79099819D01*
X97822493Y-79099819D02*
X97822493Y-78099819D01*
X97822493Y-78099819D02*
X98155826Y-78814104D01*
X98155826Y-78814104D02*
X98489159Y-78099819D01*
X98489159Y-78099819D02*
X98489159Y-79099819D01*
X117199580Y-54336792D02*
X117247200Y-54384411D01*
X117247200Y-54384411D02*
X117294819Y-54527268D01*
X117294819Y-54527268D02*
X117294819Y-54622506D01*
X117294819Y-54622506D02*
X117247200Y-54765363D01*
X117247200Y-54765363D02*
X117151961Y-54860601D01*
X117151961Y-54860601D02*
X117056723Y-54908220D01*
X117056723Y-54908220D02*
X116866247Y-54955839D01*
X116866247Y-54955839D02*
X116723390Y-54955839D01*
X116723390Y-54955839D02*
X116532914Y-54908220D01*
X116532914Y-54908220D02*
X116437676Y-54860601D01*
X116437676Y-54860601D02*
X116342438Y-54765363D01*
X116342438Y-54765363D02*
X116294819Y-54622506D01*
X116294819Y-54622506D02*
X116294819Y-54527268D01*
X116294819Y-54527268D02*
X116342438Y-54384411D01*
X116342438Y-54384411D02*
X116390057Y-54336792D01*
X117294819Y-53908220D02*
X116294819Y-53908220D01*
X116771009Y-53908220D02*
X116771009Y-53336792D01*
X117294819Y-53336792D02*
X116294819Y-53336792D01*
X117294819Y-52289173D02*
X116818628Y-52622506D01*
X117294819Y-52860601D02*
X116294819Y-52860601D01*
X116294819Y-52860601D02*
X116294819Y-52479649D01*
X116294819Y-52479649D02*
X116342438Y-52384411D01*
X116342438Y-52384411D02*
X116390057Y-52336792D01*
X116390057Y-52336792D02*
X116485295Y-52289173D01*
X116485295Y-52289173D02*
X116628152Y-52289173D01*
X116628152Y-52289173D02*
X116723390Y-52336792D01*
X116723390Y-52336792D02*
X116771009Y-52384411D01*
X116771009Y-52384411D02*
X116818628Y-52479649D01*
X116818628Y-52479649D02*
X116818628Y-52860601D01*
X116913866Y-51860601D02*
X116913866Y-51098697D01*
X117294819Y-50146316D02*
X117294819Y-50622506D01*
X117294819Y-50622506D02*
X116294819Y-50622506D01*
X117009104Y-49860601D02*
X117009104Y-49384411D01*
X117294819Y-49955839D02*
X116294819Y-49622506D01*
X116294819Y-49622506D02*
X117294819Y-49289173D01*
X116294819Y-49098696D02*
X116294819Y-48527268D01*
X117294819Y-48812982D02*
X116294819Y-48812982D01*
X117199580Y-47622506D02*
X117247200Y-47670125D01*
X117247200Y-47670125D02*
X117294819Y-47812982D01*
X117294819Y-47812982D02*
X117294819Y-47908220D01*
X117294819Y-47908220D02*
X117247200Y-48051077D01*
X117247200Y-48051077D02*
X117151961Y-48146315D01*
X117151961Y-48146315D02*
X117056723Y-48193934D01*
X117056723Y-48193934D02*
X116866247Y-48241553D01*
X116866247Y-48241553D02*
X116723390Y-48241553D01*
X116723390Y-48241553D02*
X116532914Y-48193934D01*
X116532914Y-48193934D02*
X116437676Y-48146315D01*
X116437676Y-48146315D02*
X116342438Y-48051077D01*
X116342438Y-48051077D02*
X116294819Y-47908220D01*
X116294819Y-47908220D02*
X116294819Y-47812982D01*
X116294819Y-47812982D02*
X116342438Y-47670125D01*
X116342438Y-47670125D02*
X116390057Y-47622506D01*
X117294819Y-47193934D02*
X116294819Y-47193934D01*
X116771009Y-47193934D02*
X116771009Y-46622506D01*
X117294819Y-46622506D02*
X116294819Y-46622506D01*
D13*
X42367523Y-57858299D02*
X42367523Y-56858299D01*
X42367523Y-56858299D02*
X42634189Y-57572584D01*
X42634189Y-57572584D02*
X42900856Y-56858299D01*
X42900856Y-56858299D02*
X42900856Y-57858299D01*
X43738952Y-57763060D02*
X43700856Y-57810680D01*
X43700856Y-57810680D02*
X43586571Y-57858299D01*
X43586571Y-57858299D02*
X43510380Y-57858299D01*
X43510380Y-57858299D02*
X43396094Y-57810680D01*
X43396094Y-57810680D02*
X43319904Y-57715441D01*
X43319904Y-57715441D02*
X43281809Y-57620203D01*
X43281809Y-57620203D02*
X43243713Y-57429727D01*
X43243713Y-57429727D02*
X43243713Y-57286870D01*
X43243713Y-57286870D02*
X43281809Y-57096394D01*
X43281809Y-57096394D02*
X43319904Y-57001156D01*
X43319904Y-57001156D02*
X43396094Y-56905918D01*
X43396094Y-56905918D02*
X43510380Y-56858299D01*
X43510380Y-56858299D02*
X43586571Y-56858299D01*
X43586571Y-56858299D02*
X43700856Y-56905918D01*
X43700856Y-56905918D02*
X43738952Y-56953537D01*
X44081809Y-57858299D02*
X44081809Y-56858299D01*
X44081809Y-56858299D02*
X44386571Y-56858299D01*
X44386571Y-56858299D02*
X44462761Y-56905918D01*
X44462761Y-56905918D02*
X44500856Y-56953537D01*
X44500856Y-56953537D02*
X44538952Y-57048775D01*
X44538952Y-57048775D02*
X44538952Y-57191632D01*
X44538952Y-57191632D02*
X44500856Y-57286870D01*
X44500856Y-57286870D02*
X44462761Y-57334489D01*
X44462761Y-57334489D02*
X44386571Y-57382108D01*
X44386571Y-57382108D02*
X44081809Y-57382108D01*
X45300856Y-57858299D02*
X44843713Y-57858299D01*
X45072285Y-57858299D02*
X45072285Y-56858299D01*
X45072285Y-56858299D02*
X44996094Y-57001156D01*
X44996094Y-57001156D02*
X44919904Y-57096394D01*
X44919904Y-57096394D02*
X44843713Y-57144013D01*
X45567523Y-56858299D02*
X46100857Y-56858299D01*
X46100857Y-56858299D02*
X45757999Y-57858299D01*
X46558000Y-56858299D02*
X46634190Y-56858299D01*
X46634190Y-56858299D02*
X46710381Y-56905918D01*
X46710381Y-56905918D02*
X46748476Y-56953537D01*
X46748476Y-56953537D02*
X46786571Y-57048775D01*
X46786571Y-57048775D02*
X46824666Y-57239251D01*
X46824666Y-57239251D02*
X46824666Y-57477346D01*
X46824666Y-57477346D02*
X46786571Y-57667822D01*
X46786571Y-57667822D02*
X46748476Y-57763060D01*
X46748476Y-57763060D02*
X46710381Y-57810680D01*
X46710381Y-57810680D02*
X46634190Y-57858299D01*
X46634190Y-57858299D02*
X46558000Y-57858299D01*
X46558000Y-57858299D02*
X46481809Y-57810680D01*
X46481809Y-57810680D02*
X46443714Y-57763060D01*
X46443714Y-57763060D02*
X46405619Y-57667822D01*
X46405619Y-57667822D02*
X46367523Y-57477346D01*
X46367523Y-57477346D02*
X46367523Y-57239251D01*
X46367523Y-57239251D02*
X46405619Y-57048775D01*
X46405619Y-57048775D02*
X46443714Y-56953537D01*
X46443714Y-56953537D02*
X46481809Y-56905918D01*
X46481809Y-56905918D02*
X46558000Y-56858299D01*
X47319905Y-56858299D02*
X47396095Y-56858299D01*
X47396095Y-56858299D02*
X47472286Y-56905918D01*
X47472286Y-56905918D02*
X47510381Y-56953537D01*
X47510381Y-56953537D02*
X47548476Y-57048775D01*
X47548476Y-57048775D02*
X47586571Y-57239251D01*
X47586571Y-57239251D02*
X47586571Y-57477346D01*
X47586571Y-57477346D02*
X47548476Y-57667822D01*
X47548476Y-57667822D02*
X47510381Y-57763060D01*
X47510381Y-57763060D02*
X47472286Y-57810680D01*
X47472286Y-57810680D02*
X47396095Y-57858299D01*
X47396095Y-57858299D02*
X47319905Y-57858299D01*
X47319905Y-57858299D02*
X47243714Y-57810680D01*
X47243714Y-57810680D02*
X47205619Y-57763060D01*
X47205619Y-57763060D02*
X47167524Y-57667822D01*
X47167524Y-57667822D02*
X47129428Y-57477346D01*
X47129428Y-57477346D02*
X47129428Y-57239251D01*
X47129428Y-57239251D02*
X47167524Y-57048775D01*
X47167524Y-57048775D02*
X47205619Y-56953537D01*
X47205619Y-56953537D02*
X47243714Y-56905918D01*
X47243714Y-56905918D02*
X47319905Y-56858299D01*
D10*
X49657142Y-42364819D02*
X49085714Y-42364819D01*
X49371428Y-42364819D02*
X49371428Y-41364819D01*
X49371428Y-41364819D02*
X49276190Y-41507676D01*
X49276190Y-41507676D02*
X49180952Y-41602914D01*
X49180952Y-41602914D02*
X49085714Y-41650533D01*
X50276190Y-41364819D02*
X50371428Y-41364819D01*
X50371428Y-41364819D02*
X50466666Y-41412438D01*
X50466666Y-41412438D02*
X50514285Y-41460057D01*
X50514285Y-41460057D02*
X50561904Y-41555295D01*
X50561904Y-41555295D02*
X50609523Y-41745771D01*
X50609523Y-41745771D02*
X50609523Y-41983866D01*
X50609523Y-41983866D02*
X50561904Y-42174342D01*
X50561904Y-42174342D02*
X50514285Y-42269580D01*
X50514285Y-42269580D02*
X50466666Y-42317200D01*
X50466666Y-42317200D02*
X50371428Y-42364819D01*
X50371428Y-42364819D02*
X50276190Y-42364819D01*
X50276190Y-42364819D02*
X50180952Y-42317200D01*
X50180952Y-42317200D02*
X50133333Y-42269580D01*
X50133333Y-42269580D02*
X50085714Y-42174342D01*
X50085714Y-42174342D02*
X50038095Y-41983866D01*
X50038095Y-41983866D02*
X50038095Y-41745771D01*
X50038095Y-41745771D02*
X50085714Y-41555295D01*
X50085714Y-41555295D02*
X50133333Y-41460057D01*
X50133333Y-41460057D02*
X50180952Y-41412438D01*
X50180952Y-41412438D02*
X50276190Y-41364819D01*
X51038095Y-41698152D02*
X51038095Y-42698152D01*
X51514285Y-42221961D02*
X51561904Y-42317200D01*
X51561904Y-42317200D02*
X51657142Y-42364819D01*
X51038095Y-42221961D02*
X51085714Y-42317200D01*
X51085714Y-42317200D02*
X51180952Y-42364819D01*
X51180952Y-42364819D02*
X51371428Y-42364819D01*
X51371428Y-42364819D02*
X51466666Y-42317200D01*
X51466666Y-42317200D02*
X51514285Y-42221961D01*
X51514285Y-42221961D02*
X51514285Y-41698152D01*
X52419047Y-41841009D02*
X52085714Y-41841009D01*
X52085714Y-42364819D02*
X52085714Y-41364819D01*
X52085714Y-41364819D02*
X52561904Y-41364819D01*
D14*
X76919619Y-43901904D02*
X76919619Y-43235238D01*
X76919619Y-43235238D02*
X77919619Y-43663809D01*
X77252952Y-42425714D02*
X77919619Y-42425714D01*
X76872000Y-42663809D02*
X77586285Y-42901904D01*
X77586285Y-42901904D02*
X77586285Y-42282857D01*
X77919619Y-41901904D02*
X76919619Y-41901904D01*
X77395809Y-41901904D02*
X77395809Y-41330476D01*
X77919619Y-41330476D02*
X76919619Y-41330476D01*
X77824380Y-40282857D02*
X77872000Y-40330476D01*
X77872000Y-40330476D02*
X77919619Y-40473333D01*
X77919619Y-40473333D02*
X77919619Y-40568571D01*
X77919619Y-40568571D02*
X77872000Y-40711428D01*
X77872000Y-40711428D02*
X77776761Y-40806666D01*
X77776761Y-40806666D02*
X77681523Y-40854285D01*
X77681523Y-40854285D02*
X77491047Y-40901904D01*
X77491047Y-40901904D02*
X77348190Y-40901904D01*
X77348190Y-40901904D02*
X77157714Y-40854285D01*
X77157714Y-40854285D02*
X77062476Y-40806666D01*
X77062476Y-40806666D02*
X76967238Y-40711428D01*
X76967238Y-40711428D02*
X76919619Y-40568571D01*
X76919619Y-40568571D02*
X76919619Y-40473333D01*
X76919619Y-40473333D02*
X76967238Y-40330476D01*
X76967238Y-40330476D02*
X77014857Y-40282857D01*
X77919619Y-39330476D02*
X77919619Y-39901904D01*
X77919619Y-39616190D02*
X76919619Y-39616190D01*
X76919619Y-39616190D02*
X77062476Y-39711428D01*
X77062476Y-39711428D02*
X77157714Y-39806666D01*
X77157714Y-39806666D02*
X77205333Y-39901904D01*
X77919619Y-38854285D02*
X77919619Y-38663809D01*
X77919619Y-38663809D02*
X77872000Y-38568571D01*
X77872000Y-38568571D02*
X77824380Y-38520952D01*
X77824380Y-38520952D02*
X77681523Y-38425714D01*
X77681523Y-38425714D02*
X77491047Y-38378095D01*
X77491047Y-38378095D02*
X77110095Y-38378095D01*
X77110095Y-38378095D02*
X77014857Y-38425714D01*
X77014857Y-38425714D02*
X76967238Y-38473333D01*
X76967238Y-38473333D02*
X76919619Y-38568571D01*
X76919619Y-38568571D02*
X76919619Y-38759047D01*
X76919619Y-38759047D02*
X76967238Y-38854285D01*
X76967238Y-38854285D02*
X77014857Y-38901904D01*
X77014857Y-38901904D02*
X77110095Y-38949523D01*
X77110095Y-38949523D02*
X77348190Y-38949523D01*
X77348190Y-38949523D02*
X77443428Y-38901904D01*
X77443428Y-38901904D02*
X77491047Y-38854285D01*
X77491047Y-38854285D02*
X77538666Y-38759047D01*
X77538666Y-38759047D02*
X77538666Y-38568571D01*
X77538666Y-38568571D02*
X77491047Y-38473333D01*
X77491047Y-38473333D02*
X77443428Y-38425714D01*
X77443428Y-38425714D02*
X77348190Y-38378095D01*
X77919619Y-37425714D02*
X77919619Y-37997142D01*
X77919619Y-37711428D02*
X76919619Y-37711428D01*
X76919619Y-37711428D02*
X77062476Y-37806666D01*
X77062476Y-37806666D02*
X77157714Y-37901904D01*
X77157714Y-37901904D02*
X77205333Y-37997142D01*
D10*
X39936057Y-41012856D02*
X39888438Y-40965237D01*
X39888438Y-40965237D02*
X39840819Y-40869999D01*
X39840819Y-40869999D02*
X39840819Y-40631904D01*
X39840819Y-40631904D02*
X39888438Y-40536666D01*
X39888438Y-40536666D02*
X39936057Y-40489047D01*
X39936057Y-40489047D02*
X40031295Y-40441428D01*
X40031295Y-40441428D02*
X40126533Y-40441428D01*
X40126533Y-40441428D02*
X40269390Y-40489047D01*
X40269390Y-40489047D02*
X40840819Y-41060475D01*
X40840819Y-41060475D02*
X40840819Y-40441428D01*
X39936057Y-40060475D02*
X39888438Y-40012856D01*
X39888438Y-40012856D02*
X39840819Y-39917618D01*
X39840819Y-39917618D02*
X39840819Y-39679523D01*
X39840819Y-39679523D02*
X39888438Y-39584285D01*
X39888438Y-39584285D02*
X39936057Y-39536666D01*
X39936057Y-39536666D02*
X40031295Y-39489047D01*
X40031295Y-39489047D02*
X40126533Y-39489047D01*
X40126533Y-39489047D02*
X40269390Y-39536666D01*
X40269390Y-39536666D02*
X40840819Y-40108094D01*
X40840819Y-40108094D02*
X40840819Y-39489047D01*
X40174152Y-39060475D02*
X41174152Y-39060475D01*
X40221771Y-39060475D02*
X40174152Y-38965237D01*
X40174152Y-38965237D02*
X40174152Y-38774761D01*
X40174152Y-38774761D02*
X40221771Y-38679523D01*
X40221771Y-38679523D02*
X40269390Y-38631904D01*
X40269390Y-38631904D02*
X40364628Y-38584285D01*
X40364628Y-38584285D02*
X40650342Y-38584285D01*
X40650342Y-38584285D02*
X40745580Y-38631904D01*
X40745580Y-38631904D02*
X40793200Y-38679523D01*
X40793200Y-38679523D02*
X40840819Y-38774761D01*
X40840819Y-38774761D02*
X40840819Y-38965237D01*
X40840819Y-38965237D02*
X40793200Y-39060475D01*
X40317009Y-37822380D02*
X40317009Y-38155713D01*
X40840819Y-38155713D02*
X39840819Y-38155713D01*
X39840819Y-38155713D02*
X39840819Y-37679523D01*
D14*
X102319619Y-43901904D02*
X102319619Y-43235238D01*
X102319619Y-43235238D02*
X103319619Y-43663809D01*
X102652952Y-42425714D02*
X103319619Y-42425714D01*
X102272000Y-42663809D02*
X102986285Y-42901904D01*
X102986285Y-42901904D02*
X102986285Y-42282857D01*
X103319619Y-41901904D02*
X102319619Y-41901904D01*
X102795809Y-41901904D02*
X102795809Y-41330476D01*
X103319619Y-41330476D02*
X102319619Y-41330476D01*
X103224380Y-40282857D02*
X103272000Y-40330476D01*
X103272000Y-40330476D02*
X103319619Y-40473333D01*
X103319619Y-40473333D02*
X103319619Y-40568571D01*
X103319619Y-40568571D02*
X103272000Y-40711428D01*
X103272000Y-40711428D02*
X103176761Y-40806666D01*
X103176761Y-40806666D02*
X103081523Y-40854285D01*
X103081523Y-40854285D02*
X102891047Y-40901904D01*
X102891047Y-40901904D02*
X102748190Y-40901904D01*
X102748190Y-40901904D02*
X102557714Y-40854285D01*
X102557714Y-40854285D02*
X102462476Y-40806666D01*
X102462476Y-40806666D02*
X102367238Y-40711428D01*
X102367238Y-40711428D02*
X102319619Y-40568571D01*
X102319619Y-40568571D02*
X102319619Y-40473333D01*
X102319619Y-40473333D02*
X102367238Y-40330476D01*
X102367238Y-40330476D02*
X102414857Y-40282857D01*
X103319619Y-39330476D02*
X103319619Y-39901904D01*
X103319619Y-39616190D02*
X102319619Y-39616190D01*
X102319619Y-39616190D02*
X102462476Y-39711428D01*
X102462476Y-39711428D02*
X102557714Y-39806666D01*
X102557714Y-39806666D02*
X102605333Y-39901904D01*
X103319619Y-38854285D02*
X103319619Y-38663809D01*
X103319619Y-38663809D02*
X103272000Y-38568571D01*
X103272000Y-38568571D02*
X103224380Y-38520952D01*
X103224380Y-38520952D02*
X103081523Y-38425714D01*
X103081523Y-38425714D02*
X102891047Y-38378095D01*
X102891047Y-38378095D02*
X102510095Y-38378095D01*
X102510095Y-38378095D02*
X102414857Y-38425714D01*
X102414857Y-38425714D02*
X102367238Y-38473333D01*
X102367238Y-38473333D02*
X102319619Y-38568571D01*
X102319619Y-38568571D02*
X102319619Y-38759047D01*
X102319619Y-38759047D02*
X102367238Y-38854285D01*
X102367238Y-38854285D02*
X102414857Y-38901904D01*
X102414857Y-38901904D02*
X102510095Y-38949523D01*
X102510095Y-38949523D02*
X102748190Y-38949523D01*
X102748190Y-38949523D02*
X102843428Y-38901904D01*
X102843428Y-38901904D02*
X102891047Y-38854285D01*
X102891047Y-38854285D02*
X102938666Y-38759047D01*
X102938666Y-38759047D02*
X102938666Y-38568571D01*
X102938666Y-38568571D02*
X102891047Y-38473333D01*
X102891047Y-38473333D02*
X102843428Y-38425714D01*
X102843428Y-38425714D02*
X102748190Y-38378095D01*
X103319619Y-37425714D02*
X103319619Y-37997142D01*
X103319619Y-37711428D02*
X102319619Y-37711428D01*
X102319619Y-37711428D02*
X102462476Y-37806666D01*
X102462476Y-37806666D02*
X102557714Y-37901904D01*
X102557714Y-37901904D02*
X102605333Y-37997142D01*
D10*
X71469333Y-76146819D02*
X70897905Y-76146819D01*
X71183619Y-76146819D02*
X71183619Y-75146819D01*
X71183619Y-75146819D02*
X71088381Y-75289676D01*
X71088381Y-75289676D02*
X70993143Y-75384914D01*
X70993143Y-75384914D02*
X70897905Y-75432533D01*
X71897905Y-75480152D02*
X71897905Y-76480152D01*
X72374095Y-76003961D02*
X72421714Y-76099200D01*
X72421714Y-76099200D02*
X72516952Y-76146819D01*
X71897905Y-76003961D02*
X71945524Y-76099200D01*
X71945524Y-76099200D02*
X72040762Y-76146819D01*
X72040762Y-76146819D02*
X72231238Y-76146819D01*
X72231238Y-76146819D02*
X72326476Y-76099200D01*
X72326476Y-76099200D02*
X72374095Y-76003961D01*
X72374095Y-76003961D02*
X72374095Y-75480152D01*
X73278857Y-75623009D02*
X72945524Y-75623009D01*
X72945524Y-76146819D02*
X72945524Y-75146819D01*
X72945524Y-75146819D02*
X73421714Y-75146819D01*
D14*
X46371428Y-68982000D02*
X46514285Y-69029619D01*
X46514285Y-69029619D02*
X46752380Y-69029619D01*
X46752380Y-69029619D02*
X46847618Y-68982000D01*
X46847618Y-68982000D02*
X46895237Y-68934380D01*
X46895237Y-68934380D02*
X46942856Y-68839142D01*
X46942856Y-68839142D02*
X46942856Y-68743904D01*
X46942856Y-68743904D02*
X46895237Y-68648666D01*
X46895237Y-68648666D02*
X46847618Y-68601047D01*
X46847618Y-68601047D02*
X46752380Y-68553428D01*
X46752380Y-68553428D02*
X46561904Y-68505809D01*
X46561904Y-68505809D02*
X46466666Y-68458190D01*
X46466666Y-68458190D02*
X46419047Y-68410571D01*
X46419047Y-68410571D02*
X46371428Y-68315333D01*
X46371428Y-68315333D02*
X46371428Y-68220095D01*
X46371428Y-68220095D02*
X46419047Y-68124857D01*
X46419047Y-68124857D02*
X46466666Y-68077238D01*
X46466666Y-68077238D02*
X46561904Y-68029619D01*
X46561904Y-68029619D02*
X46799999Y-68029619D01*
X46799999Y-68029619D02*
X46942856Y-68077238D01*
X47323809Y-68982000D02*
X47466666Y-69029619D01*
X47466666Y-69029619D02*
X47704761Y-69029619D01*
X47704761Y-69029619D02*
X47799999Y-68982000D01*
X47799999Y-68982000D02*
X47847618Y-68934380D01*
X47847618Y-68934380D02*
X47895237Y-68839142D01*
X47895237Y-68839142D02*
X47895237Y-68743904D01*
X47895237Y-68743904D02*
X47847618Y-68648666D01*
X47847618Y-68648666D02*
X47799999Y-68601047D01*
X47799999Y-68601047D02*
X47704761Y-68553428D01*
X47704761Y-68553428D02*
X47514285Y-68505809D01*
X47514285Y-68505809D02*
X47419047Y-68458190D01*
X47419047Y-68458190D02*
X47371428Y-68410571D01*
X47371428Y-68410571D02*
X47323809Y-68315333D01*
X47323809Y-68315333D02*
X47323809Y-68220095D01*
X47323809Y-68220095D02*
X47371428Y-68124857D01*
X47371428Y-68124857D02*
X47419047Y-68077238D01*
X47419047Y-68077238D02*
X47514285Y-68029619D01*
X47514285Y-68029619D02*
X47752380Y-68029619D01*
X47752380Y-68029619D02*
X47895237Y-68077238D01*
X48180952Y-68029619D02*
X48752380Y-68029619D01*
X48466666Y-69029619D02*
X48466666Y-68029619D01*
X48990476Y-68029619D02*
X49609523Y-68029619D01*
X49609523Y-68029619D02*
X49276190Y-68410571D01*
X49276190Y-68410571D02*
X49419047Y-68410571D01*
X49419047Y-68410571D02*
X49514285Y-68458190D01*
X49514285Y-68458190D02*
X49561904Y-68505809D01*
X49561904Y-68505809D02*
X49609523Y-68601047D01*
X49609523Y-68601047D02*
X49609523Y-68839142D01*
X49609523Y-68839142D02*
X49561904Y-68934380D01*
X49561904Y-68934380D02*
X49514285Y-68982000D01*
X49514285Y-68982000D02*
X49419047Y-69029619D01*
X49419047Y-69029619D02*
X49133333Y-69029619D01*
X49133333Y-69029619D02*
X49038095Y-68982000D01*
X49038095Y-68982000D02*
X48990476Y-68934380D01*
X50085714Y-69029619D02*
X50276190Y-69029619D01*
X50276190Y-69029619D02*
X50371428Y-68982000D01*
X50371428Y-68982000D02*
X50419047Y-68934380D01*
X50419047Y-68934380D02*
X50514285Y-68791523D01*
X50514285Y-68791523D02*
X50561904Y-68601047D01*
X50561904Y-68601047D02*
X50561904Y-68220095D01*
X50561904Y-68220095D02*
X50514285Y-68124857D01*
X50514285Y-68124857D02*
X50466666Y-68077238D01*
X50466666Y-68077238D02*
X50371428Y-68029619D01*
X50371428Y-68029619D02*
X50180952Y-68029619D01*
X50180952Y-68029619D02*
X50085714Y-68077238D01*
X50085714Y-68077238D02*
X50038095Y-68124857D01*
X50038095Y-68124857D02*
X49990476Y-68220095D01*
X49990476Y-68220095D02*
X49990476Y-68458190D01*
X49990476Y-68458190D02*
X50038095Y-68553428D01*
X50038095Y-68553428D02*
X50085714Y-68601047D01*
X50085714Y-68601047D02*
X50180952Y-68648666D01*
X50180952Y-68648666D02*
X50371428Y-68648666D01*
X50371428Y-68648666D02*
X50466666Y-68601047D01*
X50466666Y-68601047D02*
X50514285Y-68553428D01*
X50514285Y-68553428D02*
X50561904Y-68458190D01*
X50942857Y-68982000D02*
X51085714Y-69029619D01*
X51085714Y-69029619D02*
X51323809Y-69029619D01*
X51323809Y-69029619D02*
X51419047Y-68982000D01*
X51419047Y-68982000D02*
X51466666Y-68934380D01*
X51466666Y-68934380D02*
X51514285Y-68839142D01*
X51514285Y-68839142D02*
X51514285Y-68743904D01*
X51514285Y-68743904D02*
X51466666Y-68648666D01*
X51466666Y-68648666D02*
X51419047Y-68601047D01*
X51419047Y-68601047D02*
X51323809Y-68553428D01*
X51323809Y-68553428D02*
X51133333Y-68505809D01*
X51133333Y-68505809D02*
X51038095Y-68458190D01*
X51038095Y-68458190D02*
X50990476Y-68410571D01*
X50990476Y-68410571D02*
X50942857Y-68315333D01*
X50942857Y-68315333D02*
X50942857Y-68220095D01*
X50942857Y-68220095D02*
X50990476Y-68124857D01*
X50990476Y-68124857D02*
X51038095Y-68077238D01*
X51038095Y-68077238D02*
X51133333Y-68029619D01*
X51133333Y-68029619D02*
X51371428Y-68029619D01*
X51371428Y-68029619D02*
X51514285Y-68077238D01*
X52276190Y-68505809D02*
X51942857Y-68505809D01*
X51942857Y-69029619D02*
X51942857Y-68029619D01*
X51942857Y-68029619D02*
X52419047Y-68029619D01*
X52990476Y-68029619D02*
X53085714Y-68029619D01*
X53085714Y-68029619D02*
X53180952Y-68077238D01*
X53180952Y-68077238D02*
X53228571Y-68124857D01*
X53228571Y-68124857D02*
X53276190Y-68220095D01*
X53276190Y-68220095D02*
X53323809Y-68410571D01*
X53323809Y-68410571D02*
X53323809Y-68648666D01*
X53323809Y-68648666D02*
X53276190Y-68839142D01*
X53276190Y-68839142D02*
X53228571Y-68934380D01*
X53228571Y-68934380D02*
X53180952Y-68982000D01*
X53180952Y-68982000D02*
X53085714Y-69029619D01*
X53085714Y-69029619D02*
X52990476Y-69029619D01*
X52990476Y-69029619D02*
X52895238Y-68982000D01*
X52895238Y-68982000D02*
X52847619Y-68934380D01*
X52847619Y-68934380D02*
X52800000Y-68839142D01*
X52800000Y-68839142D02*
X52752381Y-68648666D01*
X52752381Y-68648666D02*
X52752381Y-68410571D01*
X52752381Y-68410571D02*
X52800000Y-68220095D01*
X52800000Y-68220095D02*
X52847619Y-68124857D01*
X52847619Y-68124857D02*
X52895238Y-68077238D01*
X52895238Y-68077238D02*
X52990476Y-68029619D01*
X54180952Y-68362952D02*
X54180952Y-69029619D01*
X53942857Y-67982000D02*
X53704762Y-68696285D01*
X53704762Y-68696285D02*
X54323809Y-68696285D01*
X54895238Y-68029619D02*
X54990476Y-68029619D01*
X54990476Y-68029619D02*
X55085714Y-68077238D01*
X55085714Y-68077238D02*
X55133333Y-68124857D01*
X55133333Y-68124857D02*
X55180952Y-68220095D01*
X55180952Y-68220095D02*
X55228571Y-68410571D01*
X55228571Y-68410571D02*
X55228571Y-68648666D01*
X55228571Y-68648666D02*
X55180952Y-68839142D01*
X55180952Y-68839142D02*
X55133333Y-68934380D01*
X55133333Y-68934380D02*
X55085714Y-68982000D01*
X55085714Y-68982000D02*
X54990476Y-69029619D01*
X54990476Y-69029619D02*
X54895238Y-69029619D01*
X54895238Y-69029619D02*
X54800000Y-68982000D01*
X54800000Y-68982000D02*
X54752381Y-68934380D01*
X54752381Y-68934380D02*
X54704762Y-68839142D01*
X54704762Y-68839142D02*
X54657143Y-68648666D01*
X54657143Y-68648666D02*
X54657143Y-68410571D01*
X54657143Y-68410571D02*
X54704762Y-68220095D01*
X54704762Y-68220095D02*
X54752381Y-68124857D01*
X54752381Y-68124857D02*
X54800000Y-68077238D01*
X54800000Y-68077238D02*
X54895238Y-68029619D01*
D10*
X42219819Y-50462619D02*
X42219819Y-51034047D01*
X42219819Y-50748333D02*
X41219819Y-50748333D01*
X41219819Y-50748333D02*
X41362676Y-50843571D01*
X41362676Y-50843571D02*
X41457914Y-50938809D01*
X41457914Y-50938809D02*
X41505533Y-51034047D01*
X41219819Y-49843571D02*
X41219819Y-49748333D01*
X41219819Y-49748333D02*
X41267438Y-49653095D01*
X41267438Y-49653095D02*
X41315057Y-49605476D01*
X41315057Y-49605476D02*
X41410295Y-49557857D01*
X41410295Y-49557857D02*
X41600771Y-49510238D01*
X41600771Y-49510238D02*
X41838866Y-49510238D01*
X41838866Y-49510238D02*
X42029342Y-49557857D01*
X42029342Y-49557857D02*
X42124580Y-49605476D01*
X42124580Y-49605476D02*
X42172200Y-49653095D01*
X42172200Y-49653095D02*
X42219819Y-49748333D01*
X42219819Y-49748333D02*
X42219819Y-49843571D01*
X42219819Y-49843571D02*
X42172200Y-49938809D01*
X42172200Y-49938809D02*
X42124580Y-49986428D01*
X42124580Y-49986428D02*
X42029342Y-50034047D01*
X42029342Y-50034047D02*
X41838866Y-50081666D01*
X41838866Y-50081666D02*
X41600771Y-50081666D01*
X41600771Y-50081666D02*
X41410295Y-50034047D01*
X41410295Y-50034047D02*
X41315057Y-49986428D01*
X41315057Y-49986428D02*
X41267438Y-49938809D01*
X41267438Y-49938809D02*
X41219819Y-49843571D01*
X41219819Y-48891190D02*
X41219819Y-48795952D01*
X41219819Y-48795952D02*
X41267438Y-48700714D01*
X41267438Y-48700714D02*
X41315057Y-48653095D01*
X41315057Y-48653095D02*
X41410295Y-48605476D01*
X41410295Y-48605476D02*
X41600771Y-48557857D01*
X41600771Y-48557857D02*
X41838866Y-48557857D01*
X41838866Y-48557857D02*
X42029342Y-48605476D01*
X42029342Y-48605476D02*
X42124580Y-48653095D01*
X42124580Y-48653095D02*
X42172200Y-48700714D01*
X42172200Y-48700714D02*
X42219819Y-48795952D01*
X42219819Y-48795952D02*
X42219819Y-48891190D01*
X42219819Y-48891190D02*
X42172200Y-48986428D01*
X42172200Y-48986428D02*
X42124580Y-49034047D01*
X42124580Y-49034047D02*
X42029342Y-49081666D01*
X42029342Y-49081666D02*
X41838866Y-49129285D01*
X41838866Y-49129285D02*
X41600771Y-49129285D01*
X41600771Y-49129285D02*
X41410295Y-49081666D01*
X41410295Y-49081666D02*
X41315057Y-49034047D01*
X41315057Y-49034047D02*
X41267438Y-48986428D01*
X41267438Y-48986428D02*
X41219819Y-48891190D01*
X41553152Y-48129285D02*
X42219819Y-48129285D01*
X41648390Y-48129285D02*
X41600771Y-48081666D01*
X41600771Y-48081666D02*
X41553152Y-47986428D01*
X41553152Y-47986428D02*
X41553152Y-47843571D01*
X41553152Y-47843571D02*
X41600771Y-47748333D01*
X41600771Y-47748333D02*
X41696009Y-47700714D01*
X41696009Y-47700714D02*
X42219819Y-47700714D01*
X41696009Y-46891190D02*
X41696009Y-47224523D01*
X42219819Y-47224523D02*
X41219819Y-47224523D01*
X41219819Y-47224523D02*
X41219819Y-46748333D01*
D14*
X100520714Y-68029619D02*
X100330238Y-68029619D01*
X100330238Y-68029619D02*
X100235000Y-68077238D01*
X100235000Y-68077238D02*
X100187381Y-68124857D01*
X100187381Y-68124857D02*
X100092143Y-68267714D01*
X100092143Y-68267714D02*
X100044524Y-68458190D01*
X100044524Y-68458190D02*
X100044524Y-68839142D01*
X100044524Y-68839142D02*
X100092143Y-68934380D01*
X100092143Y-68934380D02*
X100139762Y-68982000D01*
X100139762Y-68982000D02*
X100235000Y-69029619D01*
X100235000Y-69029619D02*
X100425476Y-69029619D01*
X100425476Y-69029619D02*
X100520714Y-68982000D01*
X100520714Y-68982000D02*
X100568333Y-68934380D01*
X100568333Y-68934380D02*
X100615952Y-68839142D01*
X100615952Y-68839142D02*
X100615952Y-68601047D01*
X100615952Y-68601047D02*
X100568333Y-68505809D01*
X100568333Y-68505809D02*
X100520714Y-68458190D01*
X100520714Y-68458190D02*
X100425476Y-68410571D01*
X100425476Y-68410571D02*
X100235000Y-68410571D01*
X100235000Y-68410571D02*
X100139762Y-68458190D01*
X100139762Y-68458190D02*
X100092143Y-68505809D01*
X100092143Y-68505809D02*
X100044524Y-68601047D01*
X100996905Y-68124857D02*
X101044524Y-68077238D01*
X101044524Y-68077238D02*
X101139762Y-68029619D01*
X101139762Y-68029619D02*
X101377857Y-68029619D01*
X101377857Y-68029619D02*
X101473095Y-68077238D01*
X101473095Y-68077238D02*
X101520714Y-68124857D01*
X101520714Y-68124857D02*
X101568333Y-68220095D01*
X101568333Y-68220095D02*
X101568333Y-68315333D01*
X101568333Y-68315333D02*
X101520714Y-68458190D01*
X101520714Y-68458190D02*
X100949286Y-69029619D01*
X100949286Y-69029619D02*
X101568333Y-69029619D01*
X101949286Y-68124857D02*
X101996905Y-68077238D01*
X101996905Y-68077238D02*
X102092143Y-68029619D01*
X102092143Y-68029619D02*
X102330238Y-68029619D01*
X102330238Y-68029619D02*
X102425476Y-68077238D01*
X102425476Y-68077238D02*
X102473095Y-68124857D01*
X102473095Y-68124857D02*
X102520714Y-68220095D01*
X102520714Y-68220095D02*
X102520714Y-68315333D01*
X102520714Y-68315333D02*
X102473095Y-68458190D01*
X102473095Y-68458190D02*
X101901667Y-69029619D01*
X101901667Y-69029619D02*
X102520714Y-69029619D01*
X103425476Y-68029619D02*
X102949286Y-68029619D01*
X102949286Y-68029619D02*
X102901667Y-68505809D01*
X102901667Y-68505809D02*
X102949286Y-68458190D01*
X102949286Y-68458190D02*
X103044524Y-68410571D01*
X103044524Y-68410571D02*
X103282619Y-68410571D01*
X103282619Y-68410571D02*
X103377857Y-68458190D01*
X103377857Y-68458190D02*
X103425476Y-68505809D01*
X103425476Y-68505809D02*
X103473095Y-68601047D01*
X103473095Y-68601047D02*
X103473095Y-68839142D01*
X103473095Y-68839142D02*
X103425476Y-68934380D01*
X103425476Y-68934380D02*
X103377857Y-68982000D01*
X103377857Y-68982000D02*
X103282619Y-69029619D01*
X103282619Y-69029619D02*
X103044524Y-69029619D01*
X103044524Y-69029619D02*
X102949286Y-68982000D01*
X102949286Y-68982000D02*
X102901667Y-68934380D01*
X104330238Y-68029619D02*
X104139762Y-68029619D01*
X104139762Y-68029619D02*
X104044524Y-68077238D01*
X104044524Y-68077238D02*
X103996905Y-68124857D01*
X103996905Y-68124857D02*
X103901667Y-68267714D01*
X103901667Y-68267714D02*
X103854048Y-68458190D01*
X103854048Y-68458190D02*
X103854048Y-68839142D01*
X103854048Y-68839142D02*
X103901667Y-68934380D01*
X103901667Y-68934380D02*
X103949286Y-68982000D01*
X103949286Y-68982000D02*
X104044524Y-69029619D01*
X104044524Y-69029619D02*
X104235000Y-69029619D01*
X104235000Y-69029619D02*
X104330238Y-68982000D01*
X104330238Y-68982000D02*
X104377857Y-68934380D01*
X104377857Y-68934380D02*
X104425476Y-68839142D01*
X104425476Y-68839142D02*
X104425476Y-68601047D01*
X104425476Y-68601047D02*
X104377857Y-68505809D01*
X104377857Y-68505809D02*
X104330238Y-68458190D01*
X104330238Y-68458190D02*
X104235000Y-68410571D01*
X104235000Y-68410571D02*
X104044524Y-68410571D01*
X104044524Y-68410571D02*
X103949286Y-68458190D01*
X103949286Y-68458190D02*
X103901667Y-68505809D01*
X103901667Y-68505809D02*
X103854048Y-68601047D01*
X115019619Y-43901904D02*
X115019619Y-43235238D01*
X115019619Y-43235238D02*
X116019619Y-43663809D01*
X115352952Y-42425714D02*
X116019619Y-42425714D01*
X114972000Y-42663809D02*
X115686285Y-42901904D01*
X115686285Y-42901904D02*
X115686285Y-42282857D01*
X116019619Y-41901904D02*
X115019619Y-41901904D01*
X115495809Y-41901904D02*
X115495809Y-41330476D01*
X116019619Y-41330476D02*
X115019619Y-41330476D01*
X115924380Y-40282857D02*
X115972000Y-40330476D01*
X115972000Y-40330476D02*
X116019619Y-40473333D01*
X116019619Y-40473333D02*
X116019619Y-40568571D01*
X116019619Y-40568571D02*
X115972000Y-40711428D01*
X115972000Y-40711428D02*
X115876761Y-40806666D01*
X115876761Y-40806666D02*
X115781523Y-40854285D01*
X115781523Y-40854285D02*
X115591047Y-40901904D01*
X115591047Y-40901904D02*
X115448190Y-40901904D01*
X115448190Y-40901904D02*
X115257714Y-40854285D01*
X115257714Y-40854285D02*
X115162476Y-40806666D01*
X115162476Y-40806666D02*
X115067238Y-40711428D01*
X115067238Y-40711428D02*
X115019619Y-40568571D01*
X115019619Y-40568571D02*
X115019619Y-40473333D01*
X115019619Y-40473333D02*
X115067238Y-40330476D01*
X115067238Y-40330476D02*
X115114857Y-40282857D01*
X115019619Y-39425714D02*
X115019619Y-39616190D01*
X115019619Y-39616190D02*
X115067238Y-39711428D01*
X115067238Y-39711428D02*
X115114857Y-39759047D01*
X115114857Y-39759047D02*
X115257714Y-39854285D01*
X115257714Y-39854285D02*
X115448190Y-39901904D01*
X115448190Y-39901904D02*
X115829142Y-39901904D01*
X115829142Y-39901904D02*
X115924380Y-39854285D01*
X115924380Y-39854285D02*
X115972000Y-39806666D01*
X115972000Y-39806666D02*
X116019619Y-39711428D01*
X116019619Y-39711428D02*
X116019619Y-39520952D01*
X116019619Y-39520952D02*
X115972000Y-39425714D01*
X115972000Y-39425714D02*
X115924380Y-39378095D01*
X115924380Y-39378095D02*
X115829142Y-39330476D01*
X115829142Y-39330476D02*
X115591047Y-39330476D01*
X115591047Y-39330476D02*
X115495809Y-39378095D01*
X115495809Y-39378095D02*
X115448190Y-39425714D01*
X115448190Y-39425714D02*
X115400571Y-39520952D01*
X115400571Y-39520952D02*
X115400571Y-39711428D01*
X115400571Y-39711428D02*
X115448190Y-39806666D01*
X115448190Y-39806666D02*
X115495809Y-39854285D01*
X115495809Y-39854285D02*
X115591047Y-39901904D01*
X115019619Y-38997142D02*
X115019619Y-38330476D01*
X115019619Y-38330476D02*
X116019619Y-38759047D01*
X115019619Y-37759047D02*
X115019619Y-37663809D01*
X115019619Y-37663809D02*
X115067238Y-37568571D01*
X115067238Y-37568571D02*
X115114857Y-37520952D01*
X115114857Y-37520952D02*
X115210095Y-37473333D01*
X115210095Y-37473333D02*
X115400571Y-37425714D01*
X115400571Y-37425714D02*
X115638666Y-37425714D01*
X115638666Y-37425714D02*
X115829142Y-37473333D01*
X115829142Y-37473333D02*
X115924380Y-37520952D01*
X115924380Y-37520952D02*
X115972000Y-37568571D01*
X115972000Y-37568571D02*
X116019619Y-37663809D01*
X116019619Y-37663809D02*
X116019619Y-37759047D01*
X116019619Y-37759047D02*
X115972000Y-37854285D01*
X115972000Y-37854285D02*
X115924380Y-37901904D01*
X115924380Y-37901904D02*
X115829142Y-37949523D01*
X115829142Y-37949523D02*
X115638666Y-37997142D01*
X115638666Y-37997142D02*
X115400571Y-37997142D01*
X115400571Y-37997142D02*
X115210095Y-37949523D01*
X115210095Y-37949523D02*
X115114857Y-37901904D01*
X115114857Y-37901904D02*
X115067238Y-37854285D01*
X115067238Y-37854285D02*
X115019619Y-37759047D01*
D10*
X54598333Y-56860819D02*
X54026905Y-56860819D01*
X54312619Y-56860819D02*
X54312619Y-55860819D01*
X54312619Y-55860819D02*
X54217381Y-56003676D01*
X54217381Y-56003676D02*
X54122143Y-56098914D01*
X54122143Y-56098914D02*
X54026905Y-56146533D01*
X55026905Y-56194152D02*
X55026905Y-57194152D01*
X55503095Y-56717961D02*
X55550714Y-56813200D01*
X55550714Y-56813200D02*
X55645952Y-56860819D01*
X55026905Y-56717961D02*
X55074524Y-56813200D01*
X55074524Y-56813200D02*
X55169762Y-56860819D01*
X55169762Y-56860819D02*
X55360238Y-56860819D01*
X55360238Y-56860819D02*
X55455476Y-56813200D01*
X55455476Y-56813200D02*
X55503095Y-56717961D01*
X55503095Y-56717961D02*
X55503095Y-56194152D01*
X56407857Y-56337009D02*
X56074524Y-56337009D01*
X56074524Y-56860819D02*
X56074524Y-55860819D01*
X56074524Y-55860819D02*
X56550714Y-55860819D01*
X56007142Y-41602819D02*
X55435714Y-41602819D01*
X55721428Y-41602819D02*
X55721428Y-40602819D01*
X55721428Y-40602819D02*
X55626190Y-40745676D01*
X55626190Y-40745676D02*
X55530952Y-40840914D01*
X55530952Y-40840914D02*
X55435714Y-40888533D01*
X56626190Y-40602819D02*
X56721428Y-40602819D01*
X56721428Y-40602819D02*
X56816666Y-40650438D01*
X56816666Y-40650438D02*
X56864285Y-40698057D01*
X56864285Y-40698057D02*
X56911904Y-40793295D01*
X56911904Y-40793295D02*
X56959523Y-40983771D01*
X56959523Y-40983771D02*
X56959523Y-41221866D01*
X56959523Y-41221866D02*
X56911904Y-41412342D01*
X56911904Y-41412342D02*
X56864285Y-41507580D01*
X56864285Y-41507580D02*
X56816666Y-41555200D01*
X56816666Y-41555200D02*
X56721428Y-41602819D01*
X56721428Y-41602819D02*
X56626190Y-41602819D01*
X56626190Y-41602819D02*
X56530952Y-41555200D01*
X56530952Y-41555200D02*
X56483333Y-41507580D01*
X56483333Y-41507580D02*
X56435714Y-41412342D01*
X56435714Y-41412342D02*
X56388095Y-41221866D01*
X56388095Y-41221866D02*
X56388095Y-40983771D01*
X56388095Y-40983771D02*
X56435714Y-40793295D01*
X56435714Y-40793295D02*
X56483333Y-40698057D01*
X56483333Y-40698057D02*
X56530952Y-40650438D01*
X56530952Y-40650438D02*
X56626190Y-40602819D01*
X57388095Y-40936152D02*
X57388095Y-41936152D01*
X57864285Y-41459961D02*
X57911904Y-41555200D01*
X57911904Y-41555200D02*
X58007142Y-41602819D01*
X57388095Y-41459961D02*
X57435714Y-41555200D01*
X57435714Y-41555200D02*
X57530952Y-41602819D01*
X57530952Y-41602819D02*
X57721428Y-41602819D01*
X57721428Y-41602819D02*
X57816666Y-41555200D01*
X57816666Y-41555200D02*
X57864285Y-41459961D01*
X57864285Y-41459961D02*
X57864285Y-40936152D01*
X58769047Y-41079009D02*
X58435714Y-41079009D01*
X58435714Y-41602819D02*
X58435714Y-40602819D01*
X58435714Y-40602819D02*
X58911904Y-40602819D01*
D14*
X89619619Y-43901904D02*
X89619619Y-43235238D01*
X89619619Y-43235238D02*
X90619619Y-43663809D01*
X89952952Y-42425714D02*
X90619619Y-42425714D01*
X89572000Y-42663809D02*
X90286285Y-42901904D01*
X90286285Y-42901904D02*
X90286285Y-42282857D01*
X90619619Y-41901904D02*
X89619619Y-41901904D01*
X90095809Y-41901904D02*
X90095809Y-41330476D01*
X90619619Y-41330476D02*
X89619619Y-41330476D01*
X90524380Y-40282857D02*
X90572000Y-40330476D01*
X90572000Y-40330476D02*
X90619619Y-40473333D01*
X90619619Y-40473333D02*
X90619619Y-40568571D01*
X90619619Y-40568571D02*
X90572000Y-40711428D01*
X90572000Y-40711428D02*
X90476761Y-40806666D01*
X90476761Y-40806666D02*
X90381523Y-40854285D01*
X90381523Y-40854285D02*
X90191047Y-40901904D01*
X90191047Y-40901904D02*
X90048190Y-40901904D01*
X90048190Y-40901904D02*
X89857714Y-40854285D01*
X89857714Y-40854285D02*
X89762476Y-40806666D01*
X89762476Y-40806666D02*
X89667238Y-40711428D01*
X89667238Y-40711428D02*
X89619619Y-40568571D01*
X89619619Y-40568571D02*
X89619619Y-40473333D01*
X89619619Y-40473333D02*
X89667238Y-40330476D01*
X89667238Y-40330476D02*
X89714857Y-40282857D01*
X90619619Y-39330476D02*
X90619619Y-39901904D01*
X90619619Y-39616190D02*
X89619619Y-39616190D01*
X89619619Y-39616190D02*
X89762476Y-39711428D01*
X89762476Y-39711428D02*
X89857714Y-39806666D01*
X89857714Y-39806666D02*
X89905333Y-39901904D01*
X90619619Y-38854285D02*
X90619619Y-38663809D01*
X90619619Y-38663809D02*
X90572000Y-38568571D01*
X90572000Y-38568571D02*
X90524380Y-38520952D01*
X90524380Y-38520952D02*
X90381523Y-38425714D01*
X90381523Y-38425714D02*
X90191047Y-38378095D01*
X90191047Y-38378095D02*
X89810095Y-38378095D01*
X89810095Y-38378095D02*
X89714857Y-38425714D01*
X89714857Y-38425714D02*
X89667238Y-38473333D01*
X89667238Y-38473333D02*
X89619619Y-38568571D01*
X89619619Y-38568571D02*
X89619619Y-38759047D01*
X89619619Y-38759047D02*
X89667238Y-38854285D01*
X89667238Y-38854285D02*
X89714857Y-38901904D01*
X89714857Y-38901904D02*
X89810095Y-38949523D01*
X89810095Y-38949523D02*
X90048190Y-38949523D01*
X90048190Y-38949523D02*
X90143428Y-38901904D01*
X90143428Y-38901904D02*
X90191047Y-38854285D01*
X90191047Y-38854285D02*
X90238666Y-38759047D01*
X90238666Y-38759047D02*
X90238666Y-38568571D01*
X90238666Y-38568571D02*
X90191047Y-38473333D01*
X90191047Y-38473333D02*
X90143428Y-38425714D01*
X90143428Y-38425714D02*
X90048190Y-38378095D01*
X90619619Y-37425714D02*
X90619619Y-37997142D01*
X90619619Y-37711428D02*
X89619619Y-37711428D01*
X89619619Y-37711428D02*
X89762476Y-37806666D01*
X89762476Y-37806666D02*
X89857714Y-37901904D01*
X89857714Y-37901904D02*
X89905333Y-37997142D01*
D10*
X47598095Y-38554819D02*
X47026667Y-38554819D01*
X47312381Y-38554819D02*
X47312381Y-37554819D01*
X47312381Y-37554819D02*
X47217143Y-37697676D01*
X47217143Y-37697676D02*
X47121905Y-37792914D01*
X47121905Y-37792914D02*
X47026667Y-37840533D01*
X47979048Y-37650057D02*
X48026667Y-37602438D01*
X48026667Y-37602438D02*
X48121905Y-37554819D01*
X48121905Y-37554819D02*
X48360000Y-37554819D01*
X48360000Y-37554819D02*
X48455238Y-37602438D01*
X48455238Y-37602438D02*
X48502857Y-37650057D01*
X48502857Y-37650057D02*
X48550476Y-37745295D01*
X48550476Y-37745295D02*
X48550476Y-37840533D01*
X48550476Y-37840533D02*
X48502857Y-37983390D01*
X48502857Y-37983390D02*
X47931429Y-38554819D01*
X47931429Y-38554819D02*
X48550476Y-38554819D01*
X48979048Y-38554819D02*
X48979048Y-37554819D01*
X48979048Y-37554819D02*
X49312381Y-38269104D01*
X49312381Y-38269104D02*
X49645714Y-37554819D01*
X49645714Y-37554819D02*
X49645714Y-38554819D01*
X71532904Y-78686819D02*
X70961476Y-78686819D01*
X71247190Y-78686819D02*
X71247190Y-77686819D01*
X71247190Y-77686819D02*
X71151952Y-77829676D01*
X71151952Y-77829676D02*
X71056714Y-77924914D01*
X71056714Y-77924914D02*
X70961476Y-77972533D01*
X72151952Y-77686819D02*
X72247190Y-77686819D01*
X72247190Y-77686819D02*
X72342428Y-77734438D01*
X72342428Y-77734438D02*
X72390047Y-77782057D01*
X72390047Y-77782057D02*
X72437666Y-77877295D01*
X72437666Y-77877295D02*
X72485285Y-78067771D01*
X72485285Y-78067771D02*
X72485285Y-78305866D01*
X72485285Y-78305866D02*
X72437666Y-78496342D01*
X72437666Y-78496342D02*
X72390047Y-78591580D01*
X72390047Y-78591580D02*
X72342428Y-78639200D01*
X72342428Y-78639200D02*
X72247190Y-78686819D01*
X72247190Y-78686819D02*
X72151952Y-78686819D01*
X72151952Y-78686819D02*
X72056714Y-78639200D01*
X72056714Y-78639200D02*
X72009095Y-78591580D01*
X72009095Y-78591580D02*
X71961476Y-78496342D01*
X71961476Y-78496342D02*
X71913857Y-78305866D01*
X71913857Y-78305866D02*
X71913857Y-78067771D01*
X71913857Y-78067771D02*
X71961476Y-77877295D01*
X71961476Y-77877295D02*
X72009095Y-77782057D01*
X72009095Y-77782057D02*
X72056714Y-77734438D01*
X72056714Y-77734438D02*
X72151952Y-77686819D01*
X73104333Y-77686819D02*
X73199571Y-77686819D01*
X73199571Y-77686819D02*
X73294809Y-77734438D01*
X73294809Y-77734438D02*
X73342428Y-77782057D01*
X73342428Y-77782057D02*
X73390047Y-77877295D01*
X73390047Y-77877295D02*
X73437666Y-78067771D01*
X73437666Y-78067771D02*
X73437666Y-78305866D01*
X73437666Y-78305866D02*
X73390047Y-78496342D01*
X73390047Y-78496342D02*
X73342428Y-78591580D01*
X73342428Y-78591580D02*
X73294809Y-78639200D01*
X73294809Y-78639200D02*
X73199571Y-78686819D01*
X73199571Y-78686819D02*
X73104333Y-78686819D01*
X73104333Y-78686819D02*
X73009095Y-78639200D01*
X73009095Y-78639200D02*
X72961476Y-78591580D01*
X72961476Y-78591580D02*
X72913857Y-78496342D01*
X72913857Y-78496342D02*
X72866238Y-78305866D01*
X72866238Y-78305866D02*
X72866238Y-78067771D01*
X72866238Y-78067771D02*
X72913857Y-77877295D01*
X72913857Y-77877295D02*
X72961476Y-77782057D01*
X72961476Y-77782057D02*
X73009095Y-77734438D01*
X73009095Y-77734438D02*
X73104333Y-77686819D01*
X73818619Y-78686819D02*
X74056714Y-78686819D01*
X74056714Y-78686819D02*
X74056714Y-78496342D01*
X74056714Y-78496342D02*
X73961476Y-78448723D01*
X73961476Y-78448723D02*
X73866238Y-78353485D01*
X73866238Y-78353485D02*
X73818619Y-78210628D01*
X73818619Y-78210628D02*
X73818619Y-77972533D01*
X73818619Y-77972533D02*
X73866238Y-77829676D01*
X73866238Y-77829676D02*
X73961476Y-77734438D01*
X73961476Y-77734438D02*
X74104333Y-77686819D01*
X74104333Y-77686819D02*
X74294809Y-77686819D01*
X74294809Y-77686819D02*
X74437666Y-77734438D01*
X74437666Y-77734438D02*
X74532904Y-77829676D01*
X74532904Y-77829676D02*
X74580523Y-77972533D01*
X74580523Y-77972533D02*
X74580523Y-78210628D01*
X74580523Y-78210628D02*
X74532904Y-78353485D01*
X74532904Y-78353485D02*
X74437666Y-78448723D01*
X74437666Y-78448723D02*
X74342428Y-78496342D01*
X74342428Y-78496342D02*
X74342428Y-78686819D01*
X74342428Y-78686819D02*
X74580523Y-78686819D01*
X49498333Y-56860819D02*
X48926905Y-56860819D01*
X49212619Y-56860819D02*
X49212619Y-55860819D01*
X49212619Y-55860819D02*
X49117381Y-56003676D01*
X49117381Y-56003676D02*
X49022143Y-56098914D01*
X49022143Y-56098914D02*
X48926905Y-56146533D01*
X49926905Y-56194152D02*
X49926905Y-57194152D01*
X50403095Y-56717961D02*
X50450714Y-56813200D01*
X50450714Y-56813200D02*
X50545952Y-56860819D01*
X49926905Y-56717961D02*
X49974524Y-56813200D01*
X49974524Y-56813200D02*
X50069762Y-56860819D01*
X50069762Y-56860819D02*
X50260238Y-56860819D01*
X50260238Y-56860819D02*
X50355476Y-56813200D01*
X50355476Y-56813200D02*
X50403095Y-56717961D01*
X50403095Y-56717961D02*
X50403095Y-56194152D01*
X51307857Y-56337009D02*
X50974524Y-56337009D01*
X50974524Y-56860819D02*
X50974524Y-55860819D01*
X50974524Y-55860819D02*
X51450714Y-55860819D01*
X48460819Y-49529904D02*
X48460819Y-50101332D01*
X48460819Y-49815618D02*
X47460819Y-49815618D01*
X47460819Y-49815618D02*
X47603676Y-49910856D01*
X47603676Y-49910856D02*
X47698914Y-50006094D01*
X47698914Y-50006094D02*
X47746533Y-50101332D01*
X47460819Y-48910856D02*
X47460819Y-48815618D01*
X47460819Y-48815618D02*
X47508438Y-48720380D01*
X47508438Y-48720380D02*
X47556057Y-48672761D01*
X47556057Y-48672761D02*
X47651295Y-48625142D01*
X47651295Y-48625142D02*
X47841771Y-48577523D01*
X47841771Y-48577523D02*
X48079866Y-48577523D01*
X48079866Y-48577523D02*
X48270342Y-48625142D01*
X48270342Y-48625142D02*
X48365580Y-48672761D01*
X48365580Y-48672761D02*
X48413200Y-48720380D01*
X48413200Y-48720380D02*
X48460819Y-48815618D01*
X48460819Y-48815618D02*
X48460819Y-48910856D01*
X48460819Y-48910856D02*
X48413200Y-49006094D01*
X48413200Y-49006094D02*
X48365580Y-49053713D01*
X48365580Y-49053713D02*
X48270342Y-49101332D01*
X48270342Y-49101332D02*
X48079866Y-49148951D01*
X48079866Y-49148951D02*
X47841771Y-49148951D01*
X47841771Y-49148951D02*
X47651295Y-49101332D01*
X47651295Y-49101332D02*
X47556057Y-49053713D01*
X47556057Y-49053713D02*
X47508438Y-49006094D01*
X47508438Y-49006094D02*
X47460819Y-48910856D01*
X48460819Y-48196570D02*
X48460819Y-47958475D01*
X48460819Y-47958475D02*
X48270342Y-47958475D01*
X48270342Y-47958475D02*
X48222723Y-48053713D01*
X48222723Y-48053713D02*
X48127485Y-48148951D01*
X48127485Y-48148951D02*
X47984628Y-48196570D01*
X47984628Y-48196570D02*
X47746533Y-48196570D01*
X47746533Y-48196570D02*
X47603676Y-48148951D01*
X47603676Y-48148951D02*
X47508438Y-48053713D01*
X47508438Y-48053713D02*
X47460819Y-47910856D01*
X47460819Y-47910856D02*
X47460819Y-47720380D01*
X47460819Y-47720380D02*
X47508438Y-47577523D01*
X47508438Y-47577523D02*
X47603676Y-47482285D01*
X47603676Y-47482285D02*
X47746533Y-47434666D01*
X47746533Y-47434666D02*
X47984628Y-47434666D01*
X47984628Y-47434666D02*
X48127485Y-47482285D01*
X48127485Y-47482285D02*
X48222723Y-47577523D01*
X48222723Y-47577523D02*
X48270342Y-47672761D01*
X48270342Y-47672761D02*
X48460819Y-47672761D01*
X48460819Y-47672761D02*
X48460819Y-47434666D01*
D14*
X33739619Y-43901904D02*
X33739619Y-43235238D01*
X33739619Y-43235238D02*
X34739619Y-43663809D01*
X34072952Y-42425714D02*
X34739619Y-42425714D01*
X33692000Y-42663809D02*
X34406285Y-42901904D01*
X34406285Y-42901904D02*
X34406285Y-42282857D01*
X34739619Y-41901904D02*
X33739619Y-41901904D01*
X34215809Y-41901904D02*
X34215809Y-41330476D01*
X34739619Y-41330476D02*
X33739619Y-41330476D01*
X34644380Y-40282857D02*
X34692000Y-40330476D01*
X34692000Y-40330476D02*
X34739619Y-40473333D01*
X34739619Y-40473333D02*
X34739619Y-40568571D01*
X34739619Y-40568571D02*
X34692000Y-40711428D01*
X34692000Y-40711428D02*
X34596761Y-40806666D01*
X34596761Y-40806666D02*
X34501523Y-40854285D01*
X34501523Y-40854285D02*
X34311047Y-40901904D01*
X34311047Y-40901904D02*
X34168190Y-40901904D01*
X34168190Y-40901904D02*
X33977714Y-40854285D01*
X33977714Y-40854285D02*
X33882476Y-40806666D01*
X33882476Y-40806666D02*
X33787238Y-40711428D01*
X33787238Y-40711428D02*
X33739619Y-40568571D01*
X33739619Y-40568571D02*
X33739619Y-40473333D01*
X33739619Y-40473333D02*
X33787238Y-40330476D01*
X33787238Y-40330476D02*
X33834857Y-40282857D01*
X34739619Y-39330476D02*
X34739619Y-39901904D01*
X34739619Y-39616190D02*
X33739619Y-39616190D01*
X33739619Y-39616190D02*
X33882476Y-39711428D01*
X33882476Y-39711428D02*
X33977714Y-39806666D01*
X33977714Y-39806666D02*
X34025333Y-39901904D01*
X33739619Y-38997142D02*
X33739619Y-38378095D01*
X33739619Y-38378095D02*
X34120571Y-38711428D01*
X34120571Y-38711428D02*
X34120571Y-38568571D01*
X34120571Y-38568571D02*
X34168190Y-38473333D01*
X34168190Y-38473333D02*
X34215809Y-38425714D01*
X34215809Y-38425714D02*
X34311047Y-38378095D01*
X34311047Y-38378095D02*
X34549142Y-38378095D01*
X34549142Y-38378095D02*
X34644380Y-38425714D01*
X34644380Y-38425714D02*
X34692000Y-38473333D01*
X34692000Y-38473333D02*
X34739619Y-38568571D01*
X34739619Y-38568571D02*
X34739619Y-38854285D01*
X34739619Y-38854285D02*
X34692000Y-38949523D01*
X34692000Y-38949523D02*
X34644380Y-38997142D01*
X34739619Y-37901904D02*
X34739619Y-37711428D01*
X34739619Y-37711428D02*
X34692000Y-37616190D01*
X34692000Y-37616190D02*
X34644380Y-37568571D01*
X34644380Y-37568571D02*
X34501523Y-37473333D01*
X34501523Y-37473333D02*
X34311047Y-37425714D01*
X34311047Y-37425714D02*
X33930095Y-37425714D01*
X33930095Y-37425714D02*
X33834857Y-37473333D01*
X33834857Y-37473333D02*
X33787238Y-37520952D01*
X33787238Y-37520952D02*
X33739619Y-37616190D01*
X33739619Y-37616190D02*
X33739619Y-37806666D01*
X33739619Y-37806666D02*
X33787238Y-37901904D01*
X33787238Y-37901904D02*
X33834857Y-37949523D01*
X33834857Y-37949523D02*
X33930095Y-37997142D01*
X33930095Y-37997142D02*
X34168190Y-37997142D01*
X34168190Y-37997142D02*
X34263428Y-37949523D01*
X34263428Y-37949523D02*
X34311047Y-37901904D01*
X34311047Y-37901904D02*
X34358666Y-37806666D01*
X34358666Y-37806666D02*
X34358666Y-37616190D01*
X34358666Y-37616190D02*
X34311047Y-37520952D01*
X34311047Y-37520952D02*
X34263428Y-37473333D01*
X34263428Y-37473333D02*
X34168190Y-37425714D01*
X64219619Y-43901904D02*
X64219619Y-43235238D01*
X64219619Y-43235238D02*
X65219619Y-43663809D01*
X64552952Y-42425714D02*
X65219619Y-42425714D01*
X64172000Y-42663809D02*
X64886285Y-42901904D01*
X64886285Y-42901904D02*
X64886285Y-42282857D01*
X65219619Y-41901904D02*
X64219619Y-41901904D01*
X64695809Y-41901904D02*
X64695809Y-41330476D01*
X65219619Y-41330476D02*
X64219619Y-41330476D01*
X65124380Y-40282857D02*
X65172000Y-40330476D01*
X65172000Y-40330476D02*
X65219619Y-40473333D01*
X65219619Y-40473333D02*
X65219619Y-40568571D01*
X65219619Y-40568571D02*
X65172000Y-40711428D01*
X65172000Y-40711428D02*
X65076761Y-40806666D01*
X65076761Y-40806666D02*
X64981523Y-40854285D01*
X64981523Y-40854285D02*
X64791047Y-40901904D01*
X64791047Y-40901904D02*
X64648190Y-40901904D01*
X64648190Y-40901904D02*
X64457714Y-40854285D01*
X64457714Y-40854285D02*
X64362476Y-40806666D01*
X64362476Y-40806666D02*
X64267238Y-40711428D01*
X64267238Y-40711428D02*
X64219619Y-40568571D01*
X64219619Y-40568571D02*
X64219619Y-40473333D01*
X64219619Y-40473333D02*
X64267238Y-40330476D01*
X64267238Y-40330476D02*
X64314857Y-40282857D01*
X65219619Y-39330476D02*
X65219619Y-39901904D01*
X65219619Y-39616190D02*
X64219619Y-39616190D01*
X64219619Y-39616190D02*
X64362476Y-39711428D01*
X64362476Y-39711428D02*
X64457714Y-39806666D01*
X64457714Y-39806666D02*
X64505333Y-39901904D01*
X64219619Y-38997142D02*
X64219619Y-38330476D01*
X64219619Y-38330476D02*
X65219619Y-38759047D01*
X64552952Y-37520952D02*
X65219619Y-37520952D01*
X64172000Y-37759047D02*
X64886285Y-37997142D01*
X64886285Y-37997142D02*
X64886285Y-37378095D01*
D10*
X76112857Y-78020152D02*
X76112857Y-78686819D01*
X75874762Y-77639200D02*
X75636667Y-78353485D01*
X75636667Y-78353485D02*
X76255714Y-78353485D01*
X76541429Y-77686819D02*
X77208095Y-77686819D01*
X77208095Y-77686819D02*
X76779524Y-78686819D01*
X77589048Y-78686819D02*
X77589048Y-77686819D01*
X78160476Y-78686819D02*
X77731905Y-78115390D01*
X78160476Y-77686819D02*
X77589048Y-78258247D01*
X78541429Y-78686819D02*
X78779524Y-78686819D01*
X78779524Y-78686819D02*
X78779524Y-78496342D01*
X78779524Y-78496342D02*
X78684286Y-78448723D01*
X78684286Y-78448723D02*
X78589048Y-78353485D01*
X78589048Y-78353485D02*
X78541429Y-78210628D01*
X78541429Y-78210628D02*
X78541429Y-77972533D01*
X78541429Y-77972533D02*
X78589048Y-77829676D01*
X78589048Y-77829676D02*
X78684286Y-77734438D01*
X78684286Y-77734438D02*
X78827143Y-77686819D01*
X78827143Y-77686819D02*
X79017619Y-77686819D01*
X79017619Y-77686819D02*
X79160476Y-77734438D01*
X79160476Y-77734438D02*
X79255714Y-77829676D01*
X79255714Y-77829676D02*
X79303333Y-77972533D01*
X79303333Y-77972533D02*
X79303333Y-78210628D01*
X79303333Y-78210628D02*
X79255714Y-78353485D01*
X79255714Y-78353485D02*
X79160476Y-78448723D01*
X79160476Y-78448723D02*
X79065238Y-78496342D01*
X79065238Y-78496342D02*
X79065238Y-78686819D01*
X79065238Y-78686819D02*
X79303333Y-78686819D01*
D15*
X50149524Y-52728600D02*
X50292381Y-52776219D01*
X50292381Y-52776219D02*
X50530476Y-52776219D01*
X50530476Y-52776219D02*
X50625714Y-52728600D01*
X50625714Y-52728600D02*
X50673333Y-52680980D01*
X50673333Y-52680980D02*
X50720952Y-52585742D01*
X50720952Y-52585742D02*
X50720952Y-52490504D01*
X50720952Y-52490504D02*
X50673333Y-52395266D01*
X50673333Y-52395266D02*
X50625714Y-52347647D01*
X50625714Y-52347647D02*
X50530476Y-52300028D01*
X50530476Y-52300028D02*
X50340000Y-52252409D01*
X50340000Y-52252409D02*
X50244762Y-52204790D01*
X50244762Y-52204790D02*
X50197143Y-52157171D01*
X50197143Y-52157171D02*
X50149524Y-52061933D01*
X50149524Y-52061933D02*
X50149524Y-51966695D01*
X50149524Y-51966695D02*
X50197143Y-51871457D01*
X50197143Y-51871457D02*
X50244762Y-51823838D01*
X50244762Y-51823838D02*
X50340000Y-51776219D01*
X50340000Y-51776219D02*
X50578095Y-51776219D01*
X50578095Y-51776219D02*
X50720952Y-51823838D01*
X51101905Y-52490504D02*
X51578095Y-52490504D01*
X51006667Y-52776219D02*
X51340000Y-51776219D01*
X51340000Y-51776219D02*
X51673333Y-52776219D01*
X52006667Y-52776219D02*
X52006667Y-51776219D01*
X52006667Y-51776219D02*
X52340000Y-52490504D01*
X52340000Y-52490504D02*
X52673333Y-51776219D01*
X52673333Y-51776219D02*
X52673333Y-52776219D01*
X53101905Y-51871457D02*
X53149524Y-51823838D01*
X53149524Y-51823838D02*
X53244762Y-51776219D01*
X53244762Y-51776219D02*
X53482857Y-51776219D01*
X53482857Y-51776219D02*
X53578095Y-51823838D01*
X53578095Y-51823838D02*
X53625714Y-51871457D01*
X53625714Y-51871457D02*
X53673333Y-51966695D01*
X53673333Y-51966695D02*
X53673333Y-52061933D01*
X53673333Y-52061933D02*
X53625714Y-52204790D01*
X53625714Y-52204790D02*
X53054286Y-52776219D01*
X53054286Y-52776219D02*
X53673333Y-52776219D01*
X54530476Y-51776219D02*
X54340000Y-51776219D01*
X54340000Y-51776219D02*
X54244762Y-51823838D01*
X54244762Y-51823838D02*
X54197143Y-51871457D01*
X54197143Y-51871457D02*
X54101905Y-52014314D01*
X54101905Y-52014314D02*
X54054286Y-52204790D01*
X54054286Y-52204790D02*
X54054286Y-52585742D01*
X54054286Y-52585742D02*
X54101905Y-52680980D01*
X54101905Y-52680980D02*
X54149524Y-52728600D01*
X54149524Y-52728600D02*
X54244762Y-52776219D01*
X54244762Y-52776219D02*
X54435238Y-52776219D01*
X54435238Y-52776219D02*
X54530476Y-52728600D01*
X54530476Y-52728600D02*
X54578095Y-52680980D01*
X54578095Y-52680980D02*
X54625714Y-52585742D01*
X54625714Y-52585742D02*
X54625714Y-52347647D01*
X54625714Y-52347647D02*
X54578095Y-52252409D01*
X54578095Y-52252409D02*
X54530476Y-52204790D01*
X54530476Y-52204790D02*
X54435238Y-52157171D01*
X54435238Y-52157171D02*
X54244762Y-52157171D01*
X54244762Y-52157171D02*
X54149524Y-52204790D01*
X54149524Y-52204790D02*
X54101905Y-52252409D01*
X54101905Y-52252409D02*
X54054286Y-52347647D01*
X55101905Y-52776219D02*
X55292381Y-52776219D01*
X55292381Y-52776219D02*
X55387619Y-52728600D01*
X55387619Y-52728600D02*
X55435238Y-52680980D01*
X55435238Y-52680980D02*
X55530476Y-52538123D01*
X55530476Y-52538123D02*
X55578095Y-52347647D01*
X55578095Y-52347647D02*
X55578095Y-51966695D01*
X55578095Y-51966695D02*
X55530476Y-51871457D01*
X55530476Y-51871457D02*
X55482857Y-51823838D01*
X55482857Y-51823838D02*
X55387619Y-51776219D01*
X55387619Y-51776219D02*
X55197143Y-51776219D01*
X55197143Y-51776219D02*
X55101905Y-51823838D01*
X55101905Y-51823838D02*
X55054286Y-51871457D01*
X55054286Y-51871457D02*
X55006667Y-51966695D01*
X55006667Y-51966695D02*
X55006667Y-52204790D01*
X55006667Y-52204790D02*
X55054286Y-52300028D01*
X55054286Y-52300028D02*
X55101905Y-52347647D01*
X55101905Y-52347647D02*
X55197143Y-52395266D01*
X55197143Y-52395266D02*
X55387619Y-52395266D01*
X55387619Y-52395266D02*
X55482857Y-52347647D01*
X55482857Y-52347647D02*
X55530476Y-52300028D01*
X55530476Y-52300028D02*
X55578095Y-52204790D01*
X56482857Y-51776219D02*
X56006667Y-51776219D01*
X56006667Y-51776219D02*
X55959048Y-52252409D01*
X55959048Y-52252409D02*
X56006667Y-52204790D01*
X56006667Y-52204790D02*
X56101905Y-52157171D01*
X56101905Y-52157171D02*
X56340000Y-52157171D01*
X56340000Y-52157171D02*
X56435238Y-52204790D01*
X56435238Y-52204790D02*
X56482857Y-52252409D01*
X56482857Y-52252409D02*
X56530476Y-52347647D01*
X56530476Y-52347647D02*
X56530476Y-52585742D01*
X56530476Y-52585742D02*
X56482857Y-52680980D01*
X56482857Y-52680980D02*
X56435238Y-52728600D01*
X56435238Y-52728600D02*
X56340000Y-52776219D01*
X56340000Y-52776219D02*
X56101905Y-52776219D01*
X56101905Y-52776219D02*
X56006667Y-52728600D01*
X56006667Y-52728600D02*
X55959048Y-52680980D01*
D16*
%TO.C,U10*%
X46885000Y-52125000D02*
X43285000Y-52125000D01*
X45085000Y-56575000D02*
G75*
G03*
X46923478Y-52136522I0J2600000D01*
G01*
X43246522Y-52136522D02*
G75*
G03*
X45085000Y-56575000I1838478J-1838478D01*
G01*
%TO.C,C11*%
X48185000Y-41430199D02*
X48185000Y-41830199D01*
X48385000Y-41630199D02*
X47985000Y-41630199D01*
X49070000Y-43700000D02*
X47830000Y-43700000D01*
X46150000Y-43700000D02*
X44910000Y-43700000D01*
X49070000Y-43740000D02*
X47830000Y-43740000D01*
X46150000Y-43740000D02*
X44910000Y-43740000D01*
X49069000Y-43780000D02*
X47830000Y-43780000D01*
X46150000Y-43780000D02*
X44911000Y-43780000D01*
X49067000Y-43820000D02*
X47830000Y-43820000D01*
X46150000Y-43820000D02*
X44913000Y-43820000D01*
X49064000Y-43860000D02*
X47830000Y-43860000D01*
X46150000Y-43860000D02*
X44916000Y-43860000D01*
X49061000Y-43900000D02*
X47830000Y-43900000D01*
X46150000Y-43900000D02*
X44919000Y-43900000D01*
X49057000Y-43940000D02*
X47830000Y-43940000D01*
X46150000Y-43940000D02*
X44923000Y-43940000D01*
X49052000Y-43980000D02*
X47830000Y-43980000D01*
X46150000Y-43980000D02*
X44928000Y-43980000D01*
X49046000Y-44020000D02*
X47830000Y-44020000D01*
X46150000Y-44020000D02*
X44934000Y-44020000D01*
X49040000Y-44060000D02*
X47830000Y-44060000D01*
X46150000Y-44060000D02*
X44940000Y-44060000D01*
X49032000Y-44100000D02*
X47830000Y-44100000D01*
X46150000Y-44100000D02*
X44948000Y-44100000D01*
X49024000Y-44140000D02*
X47830000Y-44140000D01*
X46150000Y-44140000D02*
X44956000Y-44140000D01*
X49015000Y-44180000D02*
X47830000Y-44180000D01*
X46150000Y-44180000D02*
X44965000Y-44180000D01*
X49006000Y-44220000D02*
X47830000Y-44220000D01*
X46150000Y-44220000D02*
X44974000Y-44220000D01*
X48995000Y-44260000D02*
X47830000Y-44260000D01*
X46150000Y-44260000D02*
X44985000Y-44260000D01*
X48984000Y-44300000D02*
X47830000Y-44300000D01*
X46150000Y-44300000D02*
X44996000Y-44300000D01*
X48972000Y-44340000D02*
X47830000Y-44340000D01*
X46150000Y-44340000D02*
X45008000Y-44340000D01*
X48958000Y-44380000D02*
X47830000Y-44380000D01*
X46150000Y-44380000D02*
X45022000Y-44380000D01*
X48944000Y-44421000D02*
X47830000Y-44421000D01*
X46150000Y-44421000D02*
X45036000Y-44421000D01*
X48930000Y-44461000D02*
X47830000Y-44461000D01*
X46150000Y-44461000D02*
X45050000Y-44461000D01*
X48914000Y-44501000D02*
X47830000Y-44501000D01*
X46150000Y-44501000D02*
X45066000Y-44501000D01*
X48897000Y-44541000D02*
X47830000Y-44541000D01*
X46150000Y-44541000D02*
X45083000Y-44541000D01*
X48879000Y-44581000D02*
X47830000Y-44581000D01*
X46150000Y-44581000D02*
X45101000Y-44581000D01*
X48860000Y-44621000D02*
X47830000Y-44621000D01*
X46150000Y-44621000D02*
X45120000Y-44621000D01*
X48841000Y-44661000D02*
X47830000Y-44661000D01*
X46150000Y-44661000D02*
X45139000Y-44661000D01*
X48820000Y-44701000D02*
X47830000Y-44701000D01*
X46150000Y-44701000D02*
X45160000Y-44701000D01*
X48798000Y-44741000D02*
X47830000Y-44741000D01*
X46150000Y-44741000D02*
X45182000Y-44741000D01*
X48775000Y-44781000D02*
X47830000Y-44781000D01*
X46150000Y-44781000D02*
X45205000Y-44781000D01*
X48750000Y-44821000D02*
X47830000Y-44821000D01*
X46150000Y-44821000D02*
X45230000Y-44821000D01*
X48725000Y-44861000D02*
X47830000Y-44861000D01*
X46150000Y-44861000D02*
X45255000Y-44861000D01*
X48698000Y-44901000D02*
X47830000Y-44901000D01*
X46150000Y-44901000D02*
X45282000Y-44901000D01*
X48670000Y-44941000D02*
X47830000Y-44941000D01*
X46150000Y-44941000D02*
X45310000Y-44941000D01*
X48640000Y-44981000D02*
X47830000Y-44981000D01*
X46150000Y-44981000D02*
X45340000Y-44981000D01*
X48609000Y-45021000D02*
X47830000Y-45021000D01*
X46150000Y-45021000D02*
X45371000Y-45021000D01*
X48577000Y-45061000D02*
X47830000Y-45061000D01*
X46150000Y-45061000D02*
X45403000Y-45061000D01*
X48542000Y-45101000D02*
X47830000Y-45101000D01*
X46150000Y-45101000D02*
X45438000Y-45101000D01*
X48506000Y-45141000D02*
X47830000Y-45141000D01*
X46150000Y-45141000D02*
X45474000Y-45141000D01*
X48468000Y-45181000D02*
X47830000Y-45181000D01*
X46150000Y-45181000D02*
X45512000Y-45181000D01*
X48428000Y-45221000D02*
X47830000Y-45221000D01*
X46150000Y-45221000D02*
X45552000Y-45221000D01*
X48386000Y-45261000D02*
X47830000Y-45261000D01*
X46150000Y-45261000D02*
X45594000Y-45261000D01*
X48341000Y-45301000D02*
X45639000Y-45301000D01*
X48294000Y-45341000D02*
X45686000Y-45341000D01*
X48244000Y-45381000D02*
X45736000Y-45381000D01*
X48190000Y-45421000D02*
X45790000Y-45421000D01*
X48132000Y-45461000D02*
X45848000Y-45461000D01*
X48070000Y-45501000D02*
X45910000Y-45501000D01*
X48003000Y-45541000D02*
X45977000Y-45541000D01*
X47930000Y-45581000D02*
X46050000Y-45581000D01*
X47849000Y-45621000D02*
X46131000Y-45621000D01*
X47758000Y-45661000D02*
X46222000Y-45661000D01*
X47654000Y-45701000D02*
X46326000Y-45701000D01*
X47527000Y-45741000D02*
X46453000Y-45741000D01*
X47360000Y-45781000D02*
X46620000Y-45781000D01*
X49110000Y-43700000D02*
G75*
G03*
X44870000Y-43700000I-2120000J0D01*
G01*
X44870000Y-43700000D02*
G75*
G03*
X49110000Y-43700000I2120000J0D01*
G01*
%TO.C,U4*%
X75220000Y-35500000D02*
X75220000Y-55940000D01*
X75220000Y-55940000D02*
X79720000Y-55940000D01*
X76470000Y-35500000D02*
X75220000Y-35500000D01*
X79720000Y-35500000D02*
X78470000Y-35500000D01*
X79720000Y-55940000D02*
X79720000Y-35500000D01*
X76470000Y-35500000D02*
G75*
G03*
X78470000Y-35500000I1000000J0D01*
G01*
X75869000Y-36195000D02*
G75*
G03*
X75769000Y-36195000I-50000J0D01*
G01*
X75769000Y-36195000D02*
G75*
G03*
X75869000Y-36195000I50000J0D01*
G01*
X75944000Y-36195000D02*
G75*
G03*
X75694000Y-36195000I-125000J0D01*
G01*
X75694000Y-36195000D02*
G75*
G03*
X75944000Y-36195000I125000J0D01*
G01*
X76019000Y-36195000D02*
G75*
G03*
X75619000Y-36195000I-200000J0D01*
G01*
X75619000Y-36195000D02*
G75*
G03*
X76019000Y-36195000I200000J0D01*
G01*
%TO.C,C13*%
X43067000Y-43465000D02*
X41809000Y-43465000D01*
X43067000Y-41625000D02*
X41809000Y-41625000D01*
%TO.C,U5*%
X100620000Y-35500000D02*
X100620000Y-55940000D01*
X100620000Y-55940000D02*
X105120000Y-55940000D01*
X101870000Y-35500000D02*
X100620000Y-35500000D01*
X105120000Y-35500000D02*
X103870000Y-35500000D01*
X105120000Y-55940000D02*
X105120000Y-35500000D01*
X101870000Y-35500000D02*
G75*
G03*
X103870000Y-35500000I1000000J0D01*
G01*
X101269000Y-36195000D02*
G75*
G03*
X101169000Y-36195000I-50000J0D01*
G01*
X101169000Y-36195000D02*
G75*
G03*
X101269000Y-36195000I50000J0D01*
G01*
X101344000Y-36195000D02*
G75*
G03*
X101094000Y-36195000I-125000J0D01*
G01*
X101094000Y-36195000D02*
G75*
G03*
X101344000Y-36195000I125000J0D01*
G01*
X101419000Y-36195000D02*
G75*
G03*
X101019000Y-36195000I-200000J0D01*
G01*
X101019000Y-36195000D02*
G75*
G03*
X101419000Y-36195000I200000J0D01*
G01*
%TO.C,R6*%
X81280000Y-63596000D02*
X81280000Y-62976000D01*
X82200000Y-64516000D02*
G75*
G03*
X80360000Y-64516000I-920000J0D01*
G01*
X80360000Y-64516000D02*
G75*
G03*
X82200000Y-64516000I920000J0D01*
G01*
%TO.C,C10*%
X75744000Y-70489199D02*
X75744000Y-70889199D01*
X75944000Y-70689199D02*
X75544000Y-70689199D01*
X76629000Y-72759000D02*
X75389000Y-72759000D01*
X73709000Y-72759000D02*
X72469000Y-72759000D01*
X76629000Y-72799000D02*
X75389000Y-72799000D01*
X73709000Y-72799000D02*
X72469000Y-72799000D01*
X76628000Y-72839000D02*
X75389000Y-72839000D01*
X73709000Y-72839000D02*
X72470000Y-72839000D01*
X76626000Y-72879000D02*
X75389000Y-72879000D01*
X73709000Y-72879000D02*
X72472000Y-72879000D01*
X76623000Y-72919000D02*
X75389000Y-72919000D01*
X73709000Y-72919000D02*
X72475000Y-72919000D01*
X76620000Y-72959000D02*
X75389000Y-72959000D01*
X73709000Y-72959000D02*
X72478000Y-72959000D01*
X76616000Y-72999000D02*
X75389000Y-72999000D01*
X73709000Y-72999000D02*
X72482000Y-72999000D01*
X76611000Y-73039000D02*
X75389000Y-73039000D01*
X73709000Y-73039000D02*
X72487000Y-73039000D01*
X76605000Y-73079000D02*
X75389000Y-73079000D01*
X73709000Y-73079000D02*
X72493000Y-73079000D01*
X76599000Y-73119000D02*
X75389000Y-73119000D01*
X73709000Y-73119000D02*
X72499000Y-73119000D01*
X76591000Y-73159000D02*
X75389000Y-73159000D01*
X73709000Y-73159000D02*
X72507000Y-73159000D01*
X76583000Y-73199000D02*
X75389000Y-73199000D01*
X73709000Y-73199000D02*
X72515000Y-73199000D01*
X76574000Y-73239000D02*
X75389000Y-73239000D01*
X73709000Y-73239000D02*
X72524000Y-73239000D01*
X76565000Y-73279000D02*
X75389000Y-73279000D01*
X73709000Y-73279000D02*
X72533000Y-73279000D01*
X76554000Y-73319000D02*
X75389000Y-73319000D01*
X73709000Y-73319000D02*
X72544000Y-73319000D01*
X76543000Y-73359000D02*
X75389000Y-73359000D01*
X73709000Y-73359000D02*
X72555000Y-73359000D01*
X76531000Y-73399000D02*
X75389000Y-73399000D01*
X73709000Y-73399000D02*
X72567000Y-73399000D01*
X76517000Y-73439000D02*
X75389000Y-73439000D01*
X73709000Y-73439000D02*
X72581000Y-73439000D01*
X76503000Y-73480000D02*
X75389000Y-73480000D01*
X73709000Y-73480000D02*
X72595000Y-73480000D01*
X76489000Y-73520000D02*
X75389000Y-73520000D01*
X73709000Y-73520000D02*
X72609000Y-73520000D01*
X76473000Y-73560000D02*
X75389000Y-73560000D01*
X73709000Y-73560000D02*
X72625000Y-73560000D01*
X76456000Y-73600000D02*
X75389000Y-73600000D01*
X73709000Y-73600000D02*
X72642000Y-73600000D01*
X76438000Y-73640000D02*
X75389000Y-73640000D01*
X73709000Y-73640000D02*
X72660000Y-73640000D01*
X76419000Y-73680000D02*
X75389000Y-73680000D01*
X73709000Y-73680000D02*
X72679000Y-73680000D01*
X76400000Y-73720000D02*
X75389000Y-73720000D01*
X73709000Y-73720000D02*
X72698000Y-73720000D01*
X76379000Y-73760000D02*
X75389000Y-73760000D01*
X73709000Y-73760000D02*
X72719000Y-73760000D01*
X76357000Y-73800000D02*
X75389000Y-73800000D01*
X73709000Y-73800000D02*
X72741000Y-73800000D01*
X76334000Y-73840000D02*
X75389000Y-73840000D01*
X73709000Y-73840000D02*
X72764000Y-73840000D01*
X76309000Y-73880000D02*
X75389000Y-73880000D01*
X73709000Y-73880000D02*
X72789000Y-73880000D01*
X76284000Y-73920000D02*
X75389000Y-73920000D01*
X73709000Y-73920000D02*
X72814000Y-73920000D01*
X76257000Y-73960000D02*
X75389000Y-73960000D01*
X73709000Y-73960000D02*
X72841000Y-73960000D01*
X76229000Y-74000000D02*
X75389000Y-74000000D01*
X73709000Y-74000000D02*
X72869000Y-74000000D01*
X76199000Y-74040000D02*
X75389000Y-74040000D01*
X73709000Y-74040000D02*
X72899000Y-74040000D01*
X76168000Y-74080000D02*
X75389000Y-74080000D01*
X73709000Y-74080000D02*
X72930000Y-74080000D01*
X76136000Y-74120000D02*
X75389000Y-74120000D01*
X73709000Y-74120000D02*
X72962000Y-74120000D01*
X76101000Y-74160000D02*
X75389000Y-74160000D01*
X73709000Y-74160000D02*
X72997000Y-74160000D01*
X76065000Y-74200000D02*
X75389000Y-74200000D01*
X73709000Y-74200000D02*
X73033000Y-74200000D01*
X76027000Y-74240000D02*
X75389000Y-74240000D01*
X73709000Y-74240000D02*
X73071000Y-74240000D01*
X75987000Y-74280000D02*
X75389000Y-74280000D01*
X73709000Y-74280000D02*
X73111000Y-74280000D01*
X75945000Y-74320000D02*
X75389000Y-74320000D01*
X73709000Y-74320000D02*
X73153000Y-74320000D01*
X75900000Y-74360000D02*
X73198000Y-74360000D01*
X75853000Y-74400000D02*
X73245000Y-74400000D01*
X75803000Y-74440000D02*
X73295000Y-74440000D01*
X75749000Y-74480000D02*
X73349000Y-74480000D01*
X75691000Y-74520000D02*
X73407000Y-74520000D01*
X75629000Y-74560000D02*
X73469000Y-74560000D01*
X75562000Y-74600000D02*
X73536000Y-74600000D01*
X75489000Y-74640000D02*
X73609000Y-74640000D01*
X75408000Y-74680000D02*
X73690000Y-74680000D01*
X75317000Y-74720000D02*
X73781000Y-74720000D01*
X75213000Y-74760000D02*
X73885000Y-74760000D01*
X75086000Y-74800000D02*
X74012000Y-74800000D01*
X74919000Y-74840000D02*
X74179000Y-74840000D01*
X76669000Y-72759000D02*
G75*
G03*
X72429000Y-72759000I-2120000J0D01*
G01*
X72429000Y-72759000D02*
G75*
G03*
X76669000Y-72759000I2120000J0D01*
G01*
%TO.C,U1*%
X29785000Y-74640000D02*
X71815000Y-74640000D01*
X71815000Y-74640000D02*
X71815000Y-62520000D01*
X29785000Y-69580000D02*
X29785000Y-74640000D01*
X29785000Y-62520000D02*
X29785000Y-67580000D01*
X71815000Y-62520000D02*
X29785000Y-62520000D01*
X29785000Y-69580000D02*
G75*
G03*
X29785000Y-67580000I0J1000000D01*
G01*
X30403000Y-74041000D02*
G75*
G03*
X30303000Y-74041000I-50000J0D01*
G01*
X30303000Y-74041000D02*
G75*
G03*
X30403000Y-74041000I50000J0D01*
G01*
X30478000Y-74041000D02*
G75*
G03*
X30228000Y-74041000I-125000J0D01*
G01*
X30228000Y-74041000D02*
G75*
G03*
X30478000Y-74041000I125000J0D01*
G01*
X30553000Y-74041000D02*
G75*
G03*
X30153000Y-74041000I-200000J0D01*
G01*
X30153000Y-74041000D02*
G75*
G03*
X30553000Y-74041000I200000J0D01*
G01*
%TO.C,C12*%
X44735000Y-48286000D02*
X44735000Y-49544000D01*
X42895000Y-48286000D02*
X42895000Y-49544000D01*
%TO.C,U8*%
X83760000Y-74640000D02*
X119440000Y-74640000D01*
X119440000Y-74640000D02*
X119440000Y-62520000D01*
X83760000Y-69580000D02*
X83760000Y-74640000D01*
X83760000Y-62520000D02*
X83760000Y-67580000D01*
X119440000Y-62520000D02*
X83760000Y-62520000D01*
X83760000Y-69580000D02*
G75*
G03*
X83760000Y-67580000I0J1000000D01*
G01*
%TO.C,C14*%
X43067000Y-46005000D02*
X41809000Y-46005000D01*
X43067000Y-44165000D02*
X41809000Y-44165000D01*
%TO.C,U7*%
X113320000Y-35500000D02*
X113320000Y-55940000D01*
X113320000Y-55940000D02*
X117820000Y-55940000D01*
X114570000Y-35500000D02*
X113320000Y-35500000D01*
X117820000Y-35500000D02*
X116570000Y-35500000D01*
X117820000Y-55940000D02*
X117820000Y-35500000D01*
X114570000Y-35500000D02*
G75*
G03*
X116570000Y-35500000I1000000J0D01*
G01*
X113969000Y-36195000D02*
G75*
G03*
X113869000Y-36195000I-50000J0D01*
G01*
X113869000Y-36195000D02*
G75*
G03*
X113969000Y-36195000I50000J0D01*
G01*
X114044000Y-36195000D02*
G75*
G03*
X113794000Y-36195000I-125000J0D01*
G01*
X113794000Y-36195000D02*
G75*
G03*
X114044000Y-36195000I125000J0D01*
G01*
X114119000Y-36195000D02*
G75*
G03*
X113719000Y-36195000I-200000J0D01*
G01*
X113719000Y-36195000D02*
G75*
G03*
X114119000Y-36195000I200000J0D01*
G01*
%TO.C,C2*%
X54636000Y-53436000D02*
X55894000Y-53436000D01*
X54636000Y-55276000D02*
X55894000Y-55276000D01*
%TO.C,C15*%
X55955000Y-40254801D02*
X55955000Y-39854801D01*
X55755000Y-40054801D02*
X56155000Y-40054801D01*
X55070000Y-37985000D02*
X56310000Y-37985000D01*
X57990000Y-37985000D02*
X59230000Y-37985000D01*
X55070000Y-37945000D02*
X56310000Y-37945000D01*
X57990000Y-37945000D02*
X59230000Y-37945000D01*
X55071000Y-37905000D02*
X56310000Y-37905000D01*
X57990000Y-37905000D02*
X59229000Y-37905000D01*
X55073000Y-37865000D02*
X56310000Y-37865000D01*
X57990000Y-37865000D02*
X59227000Y-37865000D01*
X55076000Y-37825000D02*
X56310000Y-37825000D01*
X57990000Y-37825000D02*
X59224000Y-37825000D01*
X55079000Y-37785000D02*
X56310000Y-37785000D01*
X57990000Y-37785000D02*
X59221000Y-37785000D01*
X55083000Y-37745000D02*
X56310000Y-37745000D01*
X57990000Y-37745000D02*
X59217000Y-37745000D01*
X55088000Y-37705000D02*
X56310000Y-37705000D01*
X57990000Y-37705000D02*
X59212000Y-37705000D01*
X55094000Y-37665000D02*
X56310000Y-37665000D01*
X57990000Y-37665000D02*
X59206000Y-37665000D01*
X55100000Y-37625000D02*
X56310000Y-37625000D01*
X57990000Y-37625000D02*
X59200000Y-37625000D01*
X55108000Y-37585000D02*
X56310000Y-37585000D01*
X57990000Y-37585000D02*
X59192000Y-37585000D01*
X55116000Y-37545000D02*
X56310000Y-37545000D01*
X57990000Y-37545000D02*
X59184000Y-37545000D01*
X55125000Y-37505000D02*
X56310000Y-37505000D01*
X57990000Y-37505000D02*
X59175000Y-37505000D01*
X55134000Y-37465000D02*
X56310000Y-37465000D01*
X57990000Y-37465000D02*
X59166000Y-37465000D01*
X55145000Y-37425000D02*
X56310000Y-37425000D01*
X57990000Y-37425000D02*
X59155000Y-37425000D01*
X55156000Y-37385000D02*
X56310000Y-37385000D01*
X57990000Y-37385000D02*
X59144000Y-37385000D01*
X55168000Y-37345000D02*
X56310000Y-37345000D01*
X57990000Y-37345000D02*
X59132000Y-37345000D01*
X55182000Y-37305000D02*
X56310000Y-37305000D01*
X57990000Y-37305000D02*
X59118000Y-37305000D01*
X55196000Y-37264000D02*
X56310000Y-37264000D01*
X57990000Y-37264000D02*
X59104000Y-37264000D01*
X55210000Y-37224000D02*
X56310000Y-37224000D01*
X57990000Y-37224000D02*
X59090000Y-37224000D01*
X55226000Y-37184000D02*
X56310000Y-37184000D01*
X57990000Y-37184000D02*
X59074000Y-37184000D01*
X55243000Y-37144000D02*
X56310000Y-37144000D01*
X57990000Y-37144000D02*
X59057000Y-37144000D01*
X55261000Y-37104000D02*
X56310000Y-37104000D01*
X57990000Y-37104000D02*
X59039000Y-37104000D01*
X55280000Y-37064000D02*
X56310000Y-37064000D01*
X57990000Y-37064000D02*
X59020000Y-37064000D01*
X55299000Y-37024000D02*
X56310000Y-37024000D01*
X57990000Y-37024000D02*
X59001000Y-37024000D01*
X55320000Y-36984000D02*
X56310000Y-36984000D01*
X57990000Y-36984000D02*
X58980000Y-36984000D01*
X55342000Y-36944000D02*
X56310000Y-36944000D01*
X57990000Y-36944000D02*
X58958000Y-36944000D01*
X55365000Y-36904000D02*
X56310000Y-36904000D01*
X57990000Y-36904000D02*
X58935000Y-36904000D01*
X55390000Y-36864000D02*
X56310000Y-36864000D01*
X57990000Y-36864000D02*
X58910000Y-36864000D01*
X55415000Y-36824000D02*
X56310000Y-36824000D01*
X57990000Y-36824000D02*
X58885000Y-36824000D01*
X55442000Y-36784000D02*
X56310000Y-36784000D01*
X57990000Y-36784000D02*
X58858000Y-36784000D01*
X55470000Y-36744000D02*
X56310000Y-36744000D01*
X57990000Y-36744000D02*
X58830000Y-36744000D01*
X55500000Y-36704000D02*
X56310000Y-36704000D01*
X57990000Y-36704000D02*
X58800000Y-36704000D01*
X55531000Y-36664000D02*
X56310000Y-36664000D01*
X57990000Y-36664000D02*
X58769000Y-36664000D01*
X55563000Y-36624000D02*
X56310000Y-36624000D01*
X57990000Y-36624000D02*
X58737000Y-36624000D01*
X55598000Y-36584000D02*
X56310000Y-36584000D01*
X57990000Y-36584000D02*
X58702000Y-36584000D01*
X55634000Y-36544000D02*
X56310000Y-36544000D01*
X57990000Y-36544000D02*
X58666000Y-36544000D01*
X55672000Y-36504000D02*
X56310000Y-36504000D01*
X57990000Y-36504000D02*
X58628000Y-36504000D01*
X55712000Y-36464000D02*
X56310000Y-36464000D01*
X57990000Y-36464000D02*
X58588000Y-36464000D01*
X55754000Y-36424000D02*
X56310000Y-36424000D01*
X57990000Y-36424000D02*
X58546000Y-36424000D01*
X55799000Y-36384000D02*
X58501000Y-36384000D01*
X55846000Y-36344000D02*
X58454000Y-36344000D01*
X55896000Y-36304000D02*
X58404000Y-36304000D01*
X55950000Y-36264000D02*
X58350000Y-36264000D01*
X56008000Y-36224000D02*
X58292000Y-36224000D01*
X56070000Y-36184000D02*
X58230000Y-36184000D01*
X56137000Y-36144000D02*
X58163000Y-36144000D01*
X56210000Y-36104000D02*
X58090000Y-36104000D01*
X56291000Y-36064000D02*
X58009000Y-36064000D01*
X56382000Y-36024000D02*
X57918000Y-36024000D01*
X56486000Y-35984000D02*
X57814000Y-35984000D01*
X56613000Y-35944000D02*
X57687000Y-35944000D01*
X56780000Y-35904000D02*
X57520000Y-35904000D01*
X59270000Y-37985000D02*
G75*
G03*
X55030000Y-37985000I-2120000J0D01*
G01*
X55030000Y-37985000D02*
G75*
G03*
X59270000Y-37985000I2120000J0D01*
G01*
%TO.C,U6*%
X87920000Y-35500000D02*
X87920000Y-55940000D01*
X87920000Y-55940000D02*
X92420000Y-55940000D01*
X89170000Y-35500000D02*
X87920000Y-35500000D01*
X92420000Y-35500000D02*
X91170000Y-35500000D01*
X92420000Y-55940000D02*
X92420000Y-35500000D01*
X89170000Y-35500000D02*
G75*
G03*
X91170000Y-35500000I1000000J0D01*
G01*
X88569000Y-36195000D02*
G75*
G03*
X88469000Y-36195000I-50000J0D01*
G01*
X88469000Y-36195000D02*
G75*
G03*
X88569000Y-36195000I50000J0D01*
G01*
X88644000Y-36195000D02*
G75*
G03*
X88394000Y-36195000I-125000J0D01*
G01*
X88394000Y-36195000D02*
G75*
G03*
X88644000Y-36195000I125000J0D01*
G01*
X88719000Y-36195000D02*
G75*
G03*
X88319000Y-36195000I-200000J0D01*
G01*
X88319000Y-36195000D02*
G75*
G03*
X88719000Y-36195000I200000J0D01*
G01*
%TO.C,RN1*%
X79880000Y-76370000D02*
X82680000Y-76370000D01*
X82680000Y-76370000D02*
X82680000Y-65870000D01*
X79880000Y-73660000D02*
X82680000Y-73660000D01*
X79880000Y-65870000D02*
X79880000Y-76370000D01*
X82680000Y-65870000D02*
X79880000Y-65870000D01*
%TO.C,Y1*%
X51560000Y-40625000D02*
X45160000Y-40625000D01*
X51560000Y-35575000D02*
X45160000Y-35575000D01*
X51560000Y-40625000D02*
G75*
G03*
X51560000Y-35575000I0J2525000D01*
G01*
X45160000Y-35575000D02*
G75*
G03*
X45160000Y-40625000I0J-2525000D01*
G01*
%TO.C,R2*%
X75915000Y-76200000D02*
X75295000Y-76200000D01*
X77755000Y-76200000D02*
G75*
G03*
X75915000Y-76200000I-920000J0D01*
G01*
X75915000Y-76200000D02*
G75*
G03*
X77755000Y-76200000I920000J0D01*
G01*
%TO.C,C1*%
X49536000Y-53436000D02*
X50794000Y-53436000D01*
X49536000Y-55276000D02*
X50794000Y-55276000D01*
%TO.C,R3*%
X46228000Y-48545000D02*
X46228000Y-49165000D01*
X47148000Y-47625000D02*
G75*
G03*
X45308000Y-47625000I-920000J0D01*
G01*
X45308000Y-47625000D02*
G75*
G03*
X47148000Y-47625000I920000J0D01*
G01*
%TO.C,U2*%
X32040000Y-35500000D02*
X32040000Y-55940000D01*
X32040000Y-55940000D02*
X36540000Y-55940000D01*
X33290000Y-35500000D02*
X32040000Y-35500000D01*
X36540000Y-35500000D02*
X35290000Y-35500000D01*
X36540000Y-55940000D02*
X36540000Y-35500000D01*
X33290000Y-35500000D02*
G75*
G03*
X35290000Y-35500000I1000000J0D01*
G01*
X32689000Y-36195000D02*
G75*
G03*
X32589000Y-36195000I-50000J0D01*
G01*
X32589000Y-36195000D02*
G75*
G03*
X32689000Y-36195000I50000J0D01*
G01*
X32764000Y-36195000D02*
G75*
G03*
X32514000Y-36195000I-125000J0D01*
G01*
X32514000Y-36195000D02*
G75*
G03*
X32764000Y-36195000I125000J0D01*
G01*
X32839000Y-36195000D02*
G75*
G03*
X32439000Y-36195000I-200000J0D01*
G01*
X32439000Y-36195000D02*
G75*
G03*
X32839000Y-36195000I200000J0D01*
G01*
%TO.C,U3*%
X62520000Y-35500000D02*
X62520000Y-55940000D01*
X62520000Y-55940000D02*
X67020000Y-55940000D01*
X63770000Y-35500000D02*
X62520000Y-35500000D01*
X67020000Y-35500000D02*
X65770000Y-35500000D01*
X67020000Y-55940000D02*
X67020000Y-35500000D01*
X63770000Y-35500000D02*
G75*
G03*
X65770000Y-35500000I1000000J0D01*
G01*
X63169000Y-36195000D02*
G75*
G03*
X63069000Y-36195000I-50000J0D01*
G01*
X63069000Y-36195000D02*
G75*
G03*
X63169000Y-36195000I50000J0D01*
G01*
X63244000Y-36195000D02*
G75*
G03*
X62994000Y-36195000I-125000J0D01*
G01*
X62994000Y-36195000D02*
G75*
G03*
X63244000Y-36195000I125000J0D01*
G01*
X63319000Y-36195000D02*
G75*
G03*
X62919000Y-36195000I-200000J0D01*
G01*
X62919000Y-36195000D02*
G75*
G03*
X63319000Y-36195000I200000J0D01*
G01*
%TO.C,R1*%
X77978000Y-72994000D02*
X77978000Y-72374000D01*
X78898000Y-73914000D02*
G75*
G03*
X77058000Y-73914000I-920000J0D01*
G01*
X77058000Y-73914000D02*
G75*
G03*
X78898000Y-73914000I920000J0D01*
G01*
%TO.C,U9*%
X50100000Y-50862000D02*
X50100000Y-50312000D01*
X50650000Y-50862000D02*
X50100000Y-50862000D01*
X55770000Y-44642000D02*
X56320000Y-44642000D01*
X55770000Y-50862000D02*
X56320000Y-50862000D01*
X56320000Y-44642000D02*
X56320000Y-45192000D01*
X56320000Y-50862000D02*
X56320000Y-50312000D01*
D10*
X50190092Y-45038987D02*
X49790092Y-44401566D01*
X50590092Y-44401566D01*
X50190092Y-45038987D01*
G36*
X50190092Y-45038987D02*
G01*
X49790092Y-44401566D01*
X50590092Y-44401566D01*
X50190092Y-45038987D01*
G37*
%TD*%
M02*
